%TF.GenerationSoftware,KiCad,Pcbnew,9.0.2*%
%TF.CreationDate,2026-08-13T14:29:23+09:00*%
%TF.ProjectId,CQmax10,43516d61-7831-4302-9e6b-696361645f70,rev?*%
%TF.SameCoordinates,Original*%
%TF.FileFunction,Legend,Bot*%
%TF.FilePolarity,Positive*%
%FSLAX46Y46*%
G04 Gerber Fmt 4.6, Leading zero omitted, Abs format (unit mm)*
G04 Created by KiCad (PCBNEW 9.0.2) date 2026-08-13 14:29:23*
%MOMM*%
%LPD*%
G01*
G04 APERTURE LIST*
%ADD10C,0.100000*%
G04 APERTURE END LIST*
D10*
X99822000Y-139192000D02*
X76962000Y-139192000D01*
X65278000Y-124968000D02*
X65278000Y-86868000D01*
X64516000Y-86868000D02*
X66040000Y-86868000D01*
X65786000Y-124968000D02*
X64770000Y-124968000D01*
X76962000Y-139700000D02*
X76962000Y-138684000D01*
X99822000Y-139700000D02*
X99822000Y-138684000D01*
X124650038Y-148909693D02*
X124602419Y-148814455D01*
X124602419Y-148814455D02*
X124602419Y-148671598D01*
X124602419Y-148671598D02*
X124650038Y-148528741D01*
X124650038Y-148528741D02*
X124745276Y-148433503D01*
X124745276Y-148433503D02*
X124840514Y-148385884D01*
X124840514Y-148385884D02*
X125030990Y-148338265D01*
X125030990Y-148338265D02*
X125173847Y-148338265D01*
X125173847Y-148338265D02*
X125364323Y-148385884D01*
X125364323Y-148385884D02*
X125459561Y-148433503D01*
X125459561Y-148433503D02*
X125554800Y-148528741D01*
X125554800Y-148528741D02*
X125602419Y-148671598D01*
X125602419Y-148671598D02*
X125602419Y-148766836D01*
X125602419Y-148766836D02*
X125554800Y-148909693D01*
X125554800Y-148909693D02*
X125507180Y-148957312D01*
X125507180Y-148957312D02*
X125173847Y-148957312D01*
X125173847Y-148957312D02*
X125173847Y-148766836D01*
X125602419Y-149385884D02*
X124602419Y-149385884D01*
X124602419Y-149385884D02*
X125602419Y-149957312D01*
X125602419Y-149957312D02*
X124602419Y-149957312D01*
X125602419Y-150433503D02*
X124602419Y-150433503D01*
X124602419Y-150433503D02*
X124602419Y-150671598D01*
X124602419Y-150671598D02*
X124650038Y-150814455D01*
X124650038Y-150814455D02*
X124745276Y-150909693D01*
X124745276Y-150909693D02*
X124840514Y-150957312D01*
X124840514Y-150957312D02*
X125030990Y-151004931D01*
X125030990Y-151004931D02*
X125173847Y-151004931D01*
X125173847Y-151004931D02*
X125364323Y-150957312D01*
X125364323Y-150957312D02*
X125459561Y-150909693D01*
X125459561Y-150909693D02*
X125554800Y-150814455D01*
X125554800Y-150814455D02*
X125602419Y-150671598D01*
X125602419Y-150671598D02*
X125602419Y-150433503D01*
X105282419Y-56453693D02*
X105282419Y-55882265D01*
X105282419Y-56167979D02*
X104282419Y-56167979D01*
X104282419Y-56167979D02*
X104425276Y-56072741D01*
X104425276Y-56072741D02*
X104520514Y-55977503D01*
X104520514Y-55977503D02*
X104568133Y-55882265D01*
X104282419Y-56787027D02*
X104282419Y-57406074D01*
X104282419Y-57406074D02*
X104663371Y-57072741D01*
X104663371Y-57072741D02*
X104663371Y-57215598D01*
X104663371Y-57215598D02*
X104710990Y-57310836D01*
X104710990Y-57310836D02*
X104758609Y-57358455D01*
X104758609Y-57358455D02*
X104853847Y-57406074D01*
X104853847Y-57406074D02*
X105091942Y-57406074D01*
X105091942Y-57406074D02*
X105187180Y-57358455D01*
X105187180Y-57358455D02*
X105234800Y-57310836D01*
X105234800Y-57310836D02*
X105282419Y-57215598D01*
X105282419Y-57215598D02*
X105282419Y-56929884D01*
X105282419Y-56929884D02*
X105234800Y-56834646D01*
X105234800Y-56834646D02*
X105187180Y-56787027D01*
X105282419Y-58358455D02*
X105282419Y-57787027D01*
X105282419Y-58072741D02*
X104282419Y-58072741D01*
X104282419Y-58072741D02*
X104425276Y-57977503D01*
X104425276Y-57977503D02*
X104520514Y-57882265D01*
X104520514Y-57882265D02*
X104568133Y-57787027D01*
X105615752Y-59787027D02*
X104187180Y-59787027D01*
X105282419Y-61787027D02*
X105282419Y-61215599D01*
X105282419Y-61501313D02*
X104282419Y-61501313D01*
X104282419Y-61501313D02*
X104425276Y-61406075D01*
X104425276Y-61406075D02*
X104520514Y-61310837D01*
X104520514Y-61310837D02*
X104568133Y-61215599D01*
X104282419Y-62120361D02*
X104282419Y-62739408D01*
X104282419Y-62739408D02*
X104663371Y-62406075D01*
X104663371Y-62406075D02*
X104663371Y-62548932D01*
X104663371Y-62548932D02*
X104710990Y-62644170D01*
X104710990Y-62644170D02*
X104758609Y-62691789D01*
X104758609Y-62691789D02*
X104853847Y-62739408D01*
X104853847Y-62739408D02*
X105091942Y-62739408D01*
X105091942Y-62739408D02*
X105187180Y-62691789D01*
X105187180Y-62691789D02*
X105234800Y-62644170D01*
X105234800Y-62644170D02*
X105282419Y-62548932D01*
X105282419Y-62548932D02*
X105282419Y-62263218D01*
X105282419Y-62263218D02*
X105234800Y-62167980D01*
X105234800Y-62167980D02*
X105187180Y-62120361D01*
X104377657Y-63120361D02*
X104330038Y-63167980D01*
X104330038Y-63167980D02*
X104282419Y-63263218D01*
X104282419Y-63263218D02*
X104282419Y-63501313D01*
X104282419Y-63501313D02*
X104330038Y-63596551D01*
X104330038Y-63596551D02*
X104377657Y-63644170D01*
X104377657Y-63644170D02*
X104472895Y-63691789D01*
X104472895Y-63691789D02*
X104568133Y-63691789D01*
X104568133Y-63691789D02*
X104710990Y-63644170D01*
X104710990Y-63644170D02*
X105282419Y-63072742D01*
X105282419Y-63072742D02*
X105282419Y-63691789D01*
X89375752Y-147290455D02*
X90042419Y-147290455D01*
X88994800Y-147052360D02*
X89709085Y-146814265D01*
X89709085Y-146814265D02*
X89709085Y-147433312D01*
X89042419Y-148242836D02*
X89042419Y-148052360D01*
X89042419Y-148052360D02*
X89090038Y-147957122D01*
X89090038Y-147957122D02*
X89137657Y-147909503D01*
X89137657Y-147909503D02*
X89280514Y-147814265D01*
X89280514Y-147814265D02*
X89470990Y-147766646D01*
X89470990Y-147766646D02*
X89851942Y-147766646D01*
X89851942Y-147766646D02*
X89947180Y-147814265D01*
X89947180Y-147814265D02*
X89994800Y-147861884D01*
X89994800Y-147861884D02*
X90042419Y-147957122D01*
X90042419Y-147957122D02*
X90042419Y-148147598D01*
X90042419Y-148147598D02*
X89994800Y-148242836D01*
X89994800Y-148242836D02*
X89947180Y-148290455D01*
X89947180Y-148290455D02*
X89851942Y-148338074D01*
X89851942Y-148338074D02*
X89613847Y-148338074D01*
X89613847Y-148338074D02*
X89518609Y-148290455D01*
X89518609Y-148290455D02*
X89470990Y-148242836D01*
X89470990Y-148242836D02*
X89423371Y-148147598D01*
X89423371Y-148147598D02*
X89423371Y-147957122D01*
X89423371Y-147957122D02*
X89470990Y-147861884D01*
X89470990Y-147861884D02*
X89518609Y-147814265D01*
X89518609Y-147814265D02*
X89613847Y-147766646D01*
X90375752Y-149766646D02*
X88947180Y-149766646D01*
X89375752Y-151671408D02*
X90042419Y-151671408D01*
X88994800Y-151433313D02*
X89709085Y-151195218D01*
X89709085Y-151195218D02*
X89709085Y-151814265D01*
X89042419Y-152671408D02*
X89042419Y-152195218D01*
X89042419Y-152195218D02*
X89518609Y-152147599D01*
X89518609Y-152147599D02*
X89470990Y-152195218D01*
X89470990Y-152195218D02*
X89423371Y-152290456D01*
X89423371Y-152290456D02*
X89423371Y-152528551D01*
X89423371Y-152528551D02*
X89470990Y-152623789D01*
X89470990Y-152623789D02*
X89518609Y-152671408D01*
X89518609Y-152671408D02*
X89613847Y-152719027D01*
X89613847Y-152719027D02*
X89851942Y-152719027D01*
X89851942Y-152719027D02*
X89947180Y-152671408D01*
X89947180Y-152671408D02*
X89994800Y-152623789D01*
X89994800Y-152623789D02*
X90042419Y-152528551D01*
X90042419Y-152528551D02*
X90042419Y-152290456D01*
X90042419Y-152290456D02*
X89994800Y-152195218D01*
X89994800Y-152195218D02*
X89947180Y-152147599D01*
X109410038Y-58993693D02*
X109362419Y-58898455D01*
X109362419Y-58898455D02*
X109362419Y-58755598D01*
X109362419Y-58755598D02*
X109410038Y-58612741D01*
X109410038Y-58612741D02*
X109505276Y-58517503D01*
X109505276Y-58517503D02*
X109600514Y-58469884D01*
X109600514Y-58469884D02*
X109790990Y-58422265D01*
X109790990Y-58422265D02*
X109933847Y-58422265D01*
X109933847Y-58422265D02*
X110124323Y-58469884D01*
X110124323Y-58469884D02*
X110219561Y-58517503D01*
X110219561Y-58517503D02*
X110314800Y-58612741D01*
X110314800Y-58612741D02*
X110362419Y-58755598D01*
X110362419Y-58755598D02*
X110362419Y-58850836D01*
X110362419Y-58850836D02*
X110314800Y-58993693D01*
X110314800Y-58993693D02*
X110267180Y-59041312D01*
X110267180Y-59041312D02*
X109933847Y-59041312D01*
X109933847Y-59041312D02*
X109933847Y-58850836D01*
X110362419Y-59469884D02*
X109362419Y-59469884D01*
X109362419Y-59469884D02*
X110362419Y-60041312D01*
X110362419Y-60041312D02*
X109362419Y-60041312D01*
X110362419Y-60517503D02*
X109362419Y-60517503D01*
X109362419Y-60517503D02*
X109362419Y-60755598D01*
X109362419Y-60755598D02*
X109410038Y-60898455D01*
X109410038Y-60898455D02*
X109505276Y-60993693D01*
X109505276Y-60993693D02*
X109600514Y-61041312D01*
X109600514Y-61041312D02*
X109790990Y-61088931D01*
X109790990Y-61088931D02*
X109933847Y-61088931D01*
X109933847Y-61088931D02*
X110124323Y-61041312D01*
X110124323Y-61041312D02*
X110219561Y-60993693D01*
X110219561Y-60993693D02*
X110314800Y-60898455D01*
X110314800Y-60898455D02*
X110362419Y-60755598D01*
X110362419Y-60755598D02*
X110362419Y-60517503D01*
X89296419Y-59390646D02*
X89296419Y-60009693D01*
X89296419Y-60009693D02*
X89677371Y-59676360D01*
X89677371Y-59676360D02*
X89677371Y-59819217D01*
X89677371Y-59819217D02*
X89724990Y-59914455D01*
X89724990Y-59914455D02*
X89772609Y-59962074D01*
X89772609Y-59962074D02*
X89867847Y-60009693D01*
X89867847Y-60009693D02*
X90105942Y-60009693D01*
X90105942Y-60009693D02*
X90201180Y-59962074D01*
X90201180Y-59962074D02*
X90248800Y-59914455D01*
X90248800Y-59914455D02*
X90296419Y-59819217D01*
X90296419Y-59819217D02*
X90296419Y-59533503D01*
X90296419Y-59533503D02*
X90248800Y-59438265D01*
X90248800Y-59438265D02*
X90201180Y-59390646D01*
X89296419Y-60295408D02*
X90296419Y-60628741D01*
X90296419Y-60628741D02*
X89296419Y-60962074D01*
X89296419Y-61200170D02*
X89296419Y-61819217D01*
X89296419Y-61819217D02*
X89677371Y-61485884D01*
X89677371Y-61485884D02*
X89677371Y-61628741D01*
X89677371Y-61628741D02*
X89724990Y-61723979D01*
X89724990Y-61723979D02*
X89772609Y-61771598D01*
X89772609Y-61771598D02*
X89867847Y-61819217D01*
X89867847Y-61819217D02*
X90105942Y-61819217D01*
X90105942Y-61819217D02*
X90201180Y-61771598D01*
X90201180Y-61771598D02*
X90248800Y-61723979D01*
X90248800Y-61723979D02*
X90296419Y-61628741D01*
X90296419Y-61628741D02*
X90296419Y-61343027D01*
X90296419Y-61343027D02*
X90248800Y-61247789D01*
X90248800Y-61247789D02*
X90201180Y-61200170D01*
X107822419Y-56453693D02*
X107822419Y-55882265D01*
X107822419Y-56167979D02*
X106822419Y-56167979D01*
X106822419Y-56167979D02*
X106965276Y-56072741D01*
X106965276Y-56072741D02*
X107060514Y-55977503D01*
X107060514Y-55977503D02*
X107108133Y-55882265D01*
X106917657Y-56834646D02*
X106870038Y-56882265D01*
X106870038Y-56882265D02*
X106822419Y-56977503D01*
X106822419Y-56977503D02*
X106822419Y-57215598D01*
X106822419Y-57215598D02*
X106870038Y-57310836D01*
X106870038Y-57310836D02*
X106917657Y-57358455D01*
X106917657Y-57358455D02*
X107012895Y-57406074D01*
X107012895Y-57406074D02*
X107108133Y-57406074D01*
X107108133Y-57406074D02*
X107250990Y-57358455D01*
X107250990Y-57358455D02*
X107822419Y-56787027D01*
X107822419Y-56787027D02*
X107822419Y-57406074D01*
X106822419Y-57739408D02*
X106822419Y-58406074D01*
X106822419Y-58406074D02*
X107822419Y-57977503D01*
X108155752Y-59787027D02*
X106727180Y-59787027D01*
X107822419Y-61787027D02*
X107822419Y-61215599D01*
X107822419Y-61501313D02*
X106822419Y-61501313D01*
X106822419Y-61501313D02*
X106965276Y-61406075D01*
X106965276Y-61406075D02*
X107060514Y-61310837D01*
X107060514Y-61310837D02*
X107108133Y-61215599D01*
X106822419Y-62120361D02*
X106822419Y-62739408D01*
X106822419Y-62739408D02*
X107203371Y-62406075D01*
X107203371Y-62406075D02*
X107203371Y-62548932D01*
X107203371Y-62548932D02*
X107250990Y-62644170D01*
X107250990Y-62644170D02*
X107298609Y-62691789D01*
X107298609Y-62691789D02*
X107393847Y-62739408D01*
X107393847Y-62739408D02*
X107631942Y-62739408D01*
X107631942Y-62739408D02*
X107727180Y-62691789D01*
X107727180Y-62691789D02*
X107774800Y-62644170D01*
X107774800Y-62644170D02*
X107822419Y-62548932D01*
X107822419Y-62548932D02*
X107822419Y-62263218D01*
X107822419Y-62263218D02*
X107774800Y-62167980D01*
X107774800Y-62167980D02*
X107727180Y-62120361D01*
X106822419Y-63358456D02*
X106822419Y-63453694D01*
X106822419Y-63453694D02*
X106870038Y-63548932D01*
X106870038Y-63548932D02*
X106917657Y-63596551D01*
X106917657Y-63596551D02*
X107012895Y-63644170D01*
X107012895Y-63644170D02*
X107203371Y-63691789D01*
X107203371Y-63691789D02*
X107441466Y-63691789D01*
X107441466Y-63691789D02*
X107631942Y-63644170D01*
X107631942Y-63644170D02*
X107727180Y-63596551D01*
X107727180Y-63596551D02*
X107774800Y-63548932D01*
X107774800Y-63548932D02*
X107822419Y-63453694D01*
X107822419Y-63453694D02*
X107822419Y-63358456D01*
X107822419Y-63358456D02*
X107774800Y-63263218D01*
X107774800Y-63263218D02*
X107727180Y-63215599D01*
X107727180Y-63215599D02*
X107631942Y-63167980D01*
X107631942Y-63167980D02*
X107441466Y-63120361D01*
X107441466Y-63120361D02*
X107203371Y-63120361D01*
X107203371Y-63120361D02*
X107012895Y-63167980D01*
X107012895Y-63167980D02*
X106917657Y-63215599D01*
X106917657Y-63215599D02*
X106870038Y-63263218D01*
X106870038Y-63263218D02*
X106822419Y-63358456D01*
X112156419Y-147338074D02*
X112156419Y-146861884D01*
X112156419Y-146861884D02*
X112632609Y-146814265D01*
X112632609Y-146814265D02*
X112584990Y-146861884D01*
X112584990Y-146861884D02*
X112537371Y-146957122D01*
X112537371Y-146957122D02*
X112537371Y-147195217D01*
X112537371Y-147195217D02*
X112584990Y-147290455D01*
X112584990Y-147290455D02*
X112632609Y-147338074D01*
X112632609Y-147338074D02*
X112727847Y-147385693D01*
X112727847Y-147385693D02*
X112965942Y-147385693D01*
X112965942Y-147385693D02*
X113061180Y-147338074D01*
X113061180Y-147338074D02*
X113108800Y-147290455D01*
X113108800Y-147290455D02*
X113156419Y-147195217D01*
X113156419Y-147195217D02*
X113156419Y-146957122D01*
X113156419Y-146957122D02*
X113108800Y-146861884D01*
X113108800Y-146861884D02*
X113061180Y-146814265D01*
X113156419Y-147861884D02*
X113156419Y-148052360D01*
X113156419Y-148052360D02*
X113108800Y-148147598D01*
X113108800Y-148147598D02*
X113061180Y-148195217D01*
X113061180Y-148195217D02*
X112918323Y-148290455D01*
X112918323Y-148290455D02*
X112727847Y-148338074D01*
X112727847Y-148338074D02*
X112346895Y-148338074D01*
X112346895Y-148338074D02*
X112251657Y-148290455D01*
X112251657Y-148290455D02*
X112204038Y-148242836D01*
X112204038Y-148242836D02*
X112156419Y-148147598D01*
X112156419Y-148147598D02*
X112156419Y-147957122D01*
X112156419Y-147957122D02*
X112204038Y-147861884D01*
X112204038Y-147861884D02*
X112251657Y-147814265D01*
X112251657Y-147814265D02*
X112346895Y-147766646D01*
X112346895Y-147766646D02*
X112584990Y-147766646D01*
X112584990Y-147766646D02*
X112680228Y-147814265D01*
X112680228Y-147814265D02*
X112727847Y-147861884D01*
X112727847Y-147861884D02*
X112775466Y-147957122D01*
X112775466Y-147957122D02*
X112775466Y-148147598D01*
X112775466Y-148147598D02*
X112727847Y-148242836D01*
X112727847Y-148242836D02*
X112680228Y-148290455D01*
X112680228Y-148290455D02*
X112584990Y-148338074D01*
X113489752Y-149766646D02*
X112061180Y-149766646D01*
X112156419Y-151671408D02*
X112156419Y-151480932D01*
X112156419Y-151480932D02*
X112204038Y-151385694D01*
X112204038Y-151385694D02*
X112251657Y-151338075D01*
X112251657Y-151338075D02*
X112394514Y-151242837D01*
X112394514Y-151242837D02*
X112584990Y-151195218D01*
X112584990Y-151195218D02*
X112965942Y-151195218D01*
X112965942Y-151195218D02*
X113061180Y-151242837D01*
X113061180Y-151242837D02*
X113108800Y-151290456D01*
X113108800Y-151290456D02*
X113156419Y-151385694D01*
X113156419Y-151385694D02*
X113156419Y-151576170D01*
X113156419Y-151576170D02*
X113108800Y-151671408D01*
X113108800Y-151671408D02*
X113061180Y-151719027D01*
X113061180Y-151719027D02*
X112965942Y-151766646D01*
X112965942Y-151766646D02*
X112727847Y-151766646D01*
X112727847Y-151766646D02*
X112632609Y-151719027D01*
X112632609Y-151719027D02*
X112584990Y-151671408D01*
X112584990Y-151671408D02*
X112537371Y-151576170D01*
X112537371Y-151576170D02*
X112537371Y-151385694D01*
X112537371Y-151385694D02*
X112584990Y-151290456D01*
X112584990Y-151290456D02*
X112632609Y-151242837D01*
X112632609Y-151242837D02*
X112727847Y-151195218D01*
X112156419Y-152385694D02*
X112156419Y-152480932D01*
X112156419Y-152480932D02*
X112204038Y-152576170D01*
X112204038Y-152576170D02*
X112251657Y-152623789D01*
X112251657Y-152623789D02*
X112346895Y-152671408D01*
X112346895Y-152671408D02*
X112537371Y-152719027D01*
X112537371Y-152719027D02*
X112775466Y-152719027D01*
X112775466Y-152719027D02*
X112965942Y-152671408D01*
X112965942Y-152671408D02*
X113061180Y-152623789D01*
X113061180Y-152623789D02*
X113108800Y-152576170D01*
X113108800Y-152576170D02*
X113156419Y-152480932D01*
X113156419Y-152480932D02*
X113156419Y-152385694D01*
X113156419Y-152385694D02*
X113108800Y-152290456D01*
X113108800Y-152290456D02*
X113061180Y-152242837D01*
X113061180Y-152242837D02*
X112965942Y-152195218D01*
X112965942Y-152195218D02*
X112775466Y-152147599D01*
X112775466Y-152147599D02*
X112537371Y-152147599D01*
X112537371Y-152147599D02*
X112346895Y-152195218D01*
X112346895Y-152195218D02*
X112251657Y-152242837D01*
X112251657Y-152242837D02*
X112204038Y-152290456D01*
X112204038Y-152290456D02*
X112156419Y-152385694D01*
X82422419Y-57977693D02*
X82422419Y-57406265D01*
X82422419Y-57691979D02*
X81422419Y-57691979D01*
X81422419Y-57691979D02*
X81565276Y-57596741D01*
X81565276Y-57596741D02*
X81660514Y-57501503D01*
X81660514Y-57501503D02*
X81708133Y-57406265D01*
X81422419Y-58596741D02*
X81422419Y-58691979D01*
X81422419Y-58691979D02*
X81470038Y-58787217D01*
X81470038Y-58787217D02*
X81517657Y-58834836D01*
X81517657Y-58834836D02*
X81612895Y-58882455D01*
X81612895Y-58882455D02*
X81803371Y-58930074D01*
X81803371Y-58930074D02*
X82041466Y-58930074D01*
X82041466Y-58930074D02*
X82231942Y-58882455D01*
X82231942Y-58882455D02*
X82327180Y-58834836D01*
X82327180Y-58834836D02*
X82374800Y-58787217D01*
X82374800Y-58787217D02*
X82422419Y-58691979D01*
X82422419Y-58691979D02*
X82422419Y-58596741D01*
X82422419Y-58596741D02*
X82374800Y-58501503D01*
X82374800Y-58501503D02*
X82327180Y-58453884D01*
X82327180Y-58453884D02*
X82231942Y-58406265D01*
X82231942Y-58406265D02*
X82041466Y-58358646D01*
X82041466Y-58358646D02*
X81803371Y-58358646D01*
X81803371Y-58358646D02*
X81612895Y-58406265D01*
X81612895Y-58406265D02*
X81517657Y-58453884D01*
X81517657Y-58453884D02*
X81470038Y-58501503D01*
X81470038Y-58501503D02*
X81422419Y-58596741D01*
X82755752Y-60358646D02*
X81327180Y-60358646D01*
X81850990Y-62739599D02*
X81803371Y-62644361D01*
X81803371Y-62644361D02*
X81755752Y-62596742D01*
X81755752Y-62596742D02*
X81660514Y-62549123D01*
X81660514Y-62549123D02*
X81612895Y-62549123D01*
X81612895Y-62549123D02*
X81517657Y-62596742D01*
X81517657Y-62596742D02*
X81470038Y-62644361D01*
X81470038Y-62644361D02*
X81422419Y-62739599D01*
X81422419Y-62739599D02*
X81422419Y-62930075D01*
X81422419Y-62930075D02*
X81470038Y-63025313D01*
X81470038Y-63025313D02*
X81517657Y-63072932D01*
X81517657Y-63072932D02*
X81612895Y-63120551D01*
X81612895Y-63120551D02*
X81660514Y-63120551D01*
X81660514Y-63120551D02*
X81755752Y-63072932D01*
X81755752Y-63072932D02*
X81803371Y-63025313D01*
X81803371Y-63025313D02*
X81850990Y-62930075D01*
X81850990Y-62930075D02*
X81850990Y-62739599D01*
X81850990Y-62739599D02*
X81898609Y-62644361D01*
X81898609Y-62644361D02*
X81946228Y-62596742D01*
X81946228Y-62596742D02*
X82041466Y-62549123D01*
X82041466Y-62549123D02*
X82231942Y-62549123D01*
X82231942Y-62549123D02*
X82327180Y-62596742D01*
X82327180Y-62596742D02*
X82374800Y-62644361D01*
X82374800Y-62644361D02*
X82422419Y-62739599D01*
X82422419Y-62739599D02*
X82422419Y-62930075D01*
X82422419Y-62930075D02*
X82374800Y-63025313D01*
X82374800Y-63025313D02*
X82327180Y-63072932D01*
X82327180Y-63072932D02*
X82231942Y-63120551D01*
X82231942Y-63120551D02*
X82041466Y-63120551D01*
X82041466Y-63120551D02*
X81946228Y-63072932D01*
X81946228Y-63072932D02*
X81898609Y-63025313D01*
X81898609Y-63025313D02*
X81850990Y-62930075D01*
X135016419Y-59136646D02*
X135016419Y-59755693D01*
X135016419Y-59755693D02*
X135397371Y-59422360D01*
X135397371Y-59422360D02*
X135397371Y-59565217D01*
X135397371Y-59565217D02*
X135444990Y-59660455D01*
X135444990Y-59660455D02*
X135492609Y-59708074D01*
X135492609Y-59708074D02*
X135587847Y-59755693D01*
X135587847Y-59755693D02*
X135825942Y-59755693D01*
X135825942Y-59755693D02*
X135921180Y-59708074D01*
X135921180Y-59708074D02*
X135968800Y-59660455D01*
X135968800Y-59660455D02*
X136016419Y-59565217D01*
X136016419Y-59565217D02*
X136016419Y-59279503D01*
X136016419Y-59279503D02*
X135968800Y-59184265D01*
X135968800Y-59184265D02*
X135921180Y-59136646D01*
X135016419Y-60041408D02*
X136016419Y-60374741D01*
X136016419Y-60374741D02*
X135016419Y-60708074D01*
X135016419Y-60946170D02*
X135016419Y-61565217D01*
X135016419Y-61565217D02*
X135397371Y-61231884D01*
X135397371Y-61231884D02*
X135397371Y-61374741D01*
X135397371Y-61374741D02*
X135444990Y-61469979D01*
X135444990Y-61469979D02*
X135492609Y-61517598D01*
X135492609Y-61517598D02*
X135587847Y-61565217D01*
X135587847Y-61565217D02*
X135825942Y-61565217D01*
X135825942Y-61565217D02*
X135921180Y-61517598D01*
X135921180Y-61517598D02*
X135968800Y-61469979D01*
X135968800Y-61469979D02*
X136016419Y-61374741D01*
X136016419Y-61374741D02*
X136016419Y-61089027D01*
X136016419Y-61089027D02*
X135968800Y-60993789D01*
X135968800Y-60993789D02*
X135921180Y-60946170D01*
X79184038Y-149163693D02*
X79136419Y-149068455D01*
X79136419Y-149068455D02*
X79136419Y-148925598D01*
X79136419Y-148925598D02*
X79184038Y-148782741D01*
X79184038Y-148782741D02*
X79279276Y-148687503D01*
X79279276Y-148687503D02*
X79374514Y-148639884D01*
X79374514Y-148639884D02*
X79564990Y-148592265D01*
X79564990Y-148592265D02*
X79707847Y-148592265D01*
X79707847Y-148592265D02*
X79898323Y-148639884D01*
X79898323Y-148639884D02*
X79993561Y-148687503D01*
X79993561Y-148687503D02*
X80088800Y-148782741D01*
X80088800Y-148782741D02*
X80136419Y-148925598D01*
X80136419Y-148925598D02*
X80136419Y-149020836D01*
X80136419Y-149020836D02*
X80088800Y-149163693D01*
X80088800Y-149163693D02*
X80041180Y-149211312D01*
X80041180Y-149211312D02*
X79707847Y-149211312D01*
X79707847Y-149211312D02*
X79707847Y-149020836D01*
X80136419Y-149639884D02*
X79136419Y-149639884D01*
X79136419Y-149639884D02*
X80136419Y-150211312D01*
X80136419Y-150211312D02*
X79136419Y-150211312D01*
X80136419Y-150687503D02*
X79136419Y-150687503D01*
X79136419Y-150687503D02*
X79136419Y-150925598D01*
X79136419Y-150925598D02*
X79184038Y-151068455D01*
X79184038Y-151068455D02*
X79279276Y-151163693D01*
X79279276Y-151163693D02*
X79374514Y-151211312D01*
X79374514Y-151211312D02*
X79564990Y-151258931D01*
X79564990Y-151258931D02*
X79707847Y-151258931D01*
X79707847Y-151258931D02*
X79898323Y-151211312D01*
X79898323Y-151211312D02*
X79993561Y-151163693D01*
X79993561Y-151163693D02*
X80088800Y-151068455D01*
X80088800Y-151068455D02*
X80136419Y-150925598D01*
X80136419Y-150925598D02*
X80136419Y-150687503D01*
X76342419Y-148798646D02*
X76342419Y-149417693D01*
X76342419Y-149417693D02*
X76723371Y-149084360D01*
X76723371Y-149084360D02*
X76723371Y-149227217D01*
X76723371Y-149227217D02*
X76770990Y-149322455D01*
X76770990Y-149322455D02*
X76818609Y-149370074D01*
X76818609Y-149370074D02*
X76913847Y-149417693D01*
X76913847Y-149417693D02*
X77151942Y-149417693D01*
X77151942Y-149417693D02*
X77247180Y-149370074D01*
X77247180Y-149370074D02*
X77294800Y-149322455D01*
X77294800Y-149322455D02*
X77342419Y-149227217D01*
X77342419Y-149227217D02*
X77342419Y-148941503D01*
X77342419Y-148941503D02*
X77294800Y-148846265D01*
X77294800Y-148846265D02*
X77247180Y-148798646D01*
X76342419Y-149703408D02*
X77342419Y-150036741D01*
X77342419Y-150036741D02*
X76342419Y-150370074D01*
X76342419Y-150608170D02*
X76342419Y-151227217D01*
X76342419Y-151227217D02*
X76723371Y-150893884D01*
X76723371Y-150893884D02*
X76723371Y-151036741D01*
X76723371Y-151036741D02*
X76770990Y-151131979D01*
X76770990Y-151131979D02*
X76818609Y-151179598D01*
X76818609Y-151179598D02*
X76913847Y-151227217D01*
X76913847Y-151227217D02*
X77151942Y-151227217D01*
X77151942Y-151227217D02*
X77247180Y-151179598D01*
X77247180Y-151179598D02*
X77294800Y-151131979D01*
X77294800Y-151131979D02*
X77342419Y-151036741D01*
X77342419Y-151036741D02*
X77342419Y-150751027D01*
X77342419Y-150751027D02*
X77294800Y-150655789D01*
X77294800Y-150655789D02*
X77247180Y-150608170D01*
X106822419Y-147338074D02*
X106822419Y-146861884D01*
X106822419Y-146861884D02*
X107298609Y-146814265D01*
X107298609Y-146814265D02*
X107250990Y-146861884D01*
X107250990Y-146861884D02*
X107203371Y-146957122D01*
X107203371Y-146957122D02*
X107203371Y-147195217D01*
X107203371Y-147195217D02*
X107250990Y-147290455D01*
X107250990Y-147290455D02*
X107298609Y-147338074D01*
X107298609Y-147338074D02*
X107393847Y-147385693D01*
X107393847Y-147385693D02*
X107631942Y-147385693D01*
X107631942Y-147385693D02*
X107727180Y-147338074D01*
X107727180Y-147338074D02*
X107774800Y-147290455D01*
X107774800Y-147290455D02*
X107822419Y-147195217D01*
X107822419Y-147195217D02*
X107822419Y-146957122D01*
X107822419Y-146957122D02*
X107774800Y-146861884D01*
X107774800Y-146861884D02*
X107727180Y-146814265D01*
X106822419Y-148290455D02*
X106822419Y-147814265D01*
X106822419Y-147814265D02*
X107298609Y-147766646D01*
X107298609Y-147766646D02*
X107250990Y-147814265D01*
X107250990Y-147814265D02*
X107203371Y-147909503D01*
X107203371Y-147909503D02*
X107203371Y-148147598D01*
X107203371Y-148147598D02*
X107250990Y-148242836D01*
X107250990Y-148242836D02*
X107298609Y-148290455D01*
X107298609Y-148290455D02*
X107393847Y-148338074D01*
X107393847Y-148338074D02*
X107631942Y-148338074D01*
X107631942Y-148338074D02*
X107727180Y-148290455D01*
X107727180Y-148290455D02*
X107774800Y-148242836D01*
X107774800Y-148242836D02*
X107822419Y-148147598D01*
X107822419Y-148147598D02*
X107822419Y-147909503D01*
X107822419Y-147909503D02*
X107774800Y-147814265D01*
X107774800Y-147814265D02*
X107727180Y-147766646D01*
X108155752Y-149766646D02*
X106727180Y-149766646D01*
X106822419Y-151719027D02*
X106822419Y-151242837D01*
X106822419Y-151242837D02*
X107298609Y-151195218D01*
X107298609Y-151195218D02*
X107250990Y-151242837D01*
X107250990Y-151242837D02*
X107203371Y-151338075D01*
X107203371Y-151338075D02*
X107203371Y-151576170D01*
X107203371Y-151576170D02*
X107250990Y-151671408D01*
X107250990Y-151671408D02*
X107298609Y-151719027D01*
X107298609Y-151719027D02*
X107393847Y-151766646D01*
X107393847Y-151766646D02*
X107631942Y-151766646D01*
X107631942Y-151766646D02*
X107727180Y-151719027D01*
X107727180Y-151719027D02*
X107774800Y-151671408D01*
X107774800Y-151671408D02*
X107822419Y-151576170D01*
X107822419Y-151576170D02*
X107822419Y-151338075D01*
X107822419Y-151338075D02*
X107774800Y-151242837D01*
X107774800Y-151242837D02*
X107727180Y-151195218D01*
X106822419Y-152623789D02*
X106822419Y-152433313D01*
X106822419Y-152433313D02*
X106870038Y-152338075D01*
X106870038Y-152338075D02*
X106917657Y-152290456D01*
X106917657Y-152290456D02*
X107060514Y-152195218D01*
X107060514Y-152195218D02*
X107250990Y-152147599D01*
X107250990Y-152147599D02*
X107631942Y-152147599D01*
X107631942Y-152147599D02*
X107727180Y-152195218D01*
X107727180Y-152195218D02*
X107774800Y-152242837D01*
X107774800Y-152242837D02*
X107822419Y-152338075D01*
X107822419Y-152338075D02*
X107822419Y-152528551D01*
X107822419Y-152528551D02*
X107774800Y-152623789D01*
X107774800Y-152623789D02*
X107727180Y-152671408D01*
X107727180Y-152671408D02*
X107631942Y-152719027D01*
X107631942Y-152719027D02*
X107393847Y-152719027D01*
X107393847Y-152719027D02*
X107298609Y-152671408D01*
X107298609Y-152671408D02*
X107250990Y-152623789D01*
X107250990Y-152623789D02*
X107203371Y-152528551D01*
X107203371Y-152528551D02*
X107203371Y-152338075D01*
X107203371Y-152338075D02*
X107250990Y-152242837D01*
X107250990Y-152242837D02*
X107298609Y-152195218D01*
X107298609Y-152195218D02*
X107393847Y-152147599D01*
X90713830Y-138111085D02*
X90675734Y-138072990D01*
X90675734Y-138072990D02*
X90599544Y-138034895D01*
X90599544Y-138034895D02*
X90409068Y-138034895D01*
X90409068Y-138034895D02*
X90332877Y-138072990D01*
X90332877Y-138072990D02*
X90294782Y-138111085D01*
X90294782Y-138111085D02*
X90256687Y-138187276D01*
X90256687Y-138187276D02*
X90256687Y-138263466D01*
X90256687Y-138263466D02*
X90294782Y-138377752D01*
X90294782Y-138377752D02*
X90751925Y-138834895D01*
X90751925Y-138834895D02*
X90256687Y-138834895D01*
X89951925Y-138111085D02*
X89913829Y-138072990D01*
X89913829Y-138072990D02*
X89837639Y-138034895D01*
X89837639Y-138034895D02*
X89647163Y-138034895D01*
X89647163Y-138034895D02*
X89570972Y-138072990D01*
X89570972Y-138072990D02*
X89532877Y-138111085D01*
X89532877Y-138111085D02*
X89494782Y-138187276D01*
X89494782Y-138187276D02*
X89494782Y-138263466D01*
X89494782Y-138263466D02*
X89532877Y-138377752D01*
X89532877Y-138377752D02*
X89990020Y-138834895D01*
X89990020Y-138834895D02*
X89494782Y-138834895D01*
X89151924Y-138758704D02*
X89113829Y-138796800D01*
X89113829Y-138796800D02*
X89151924Y-138834895D01*
X89151924Y-138834895D02*
X89190020Y-138796800D01*
X89190020Y-138796800D02*
X89151924Y-138758704D01*
X89151924Y-138758704D02*
X89151924Y-138834895D01*
X88656687Y-138377752D02*
X88732877Y-138339657D01*
X88732877Y-138339657D02*
X88770972Y-138301561D01*
X88770972Y-138301561D02*
X88809068Y-138225371D01*
X88809068Y-138225371D02*
X88809068Y-138187276D01*
X88809068Y-138187276D02*
X88770972Y-138111085D01*
X88770972Y-138111085D02*
X88732877Y-138072990D01*
X88732877Y-138072990D02*
X88656687Y-138034895D01*
X88656687Y-138034895D02*
X88504306Y-138034895D01*
X88504306Y-138034895D02*
X88428115Y-138072990D01*
X88428115Y-138072990D02*
X88390020Y-138111085D01*
X88390020Y-138111085D02*
X88351925Y-138187276D01*
X88351925Y-138187276D02*
X88351925Y-138225371D01*
X88351925Y-138225371D02*
X88390020Y-138301561D01*
X88390020Y-138301561D02*
X88428115Y-138339657D01*
X88428115Y-138339657D02*
X88504306Y-138377752D01*
X88504306Y-138377752D02*
X88656687Y-138377752D01*
X88656687Y-138377752D02*
X88732877Y-138415847D01*
X88732877Y-138415847D02*
X88770972Y-138453942D01*
X88770972Y-138453942D02*
X88809068Y-138530133D01*
X88809068Y-138530133D02*
X88809068Y-138682514D01*
X88809068Y-138682514D02*
X88770972Y-138758704D01*
X88770972Y-138758704D02*
X88732877Y-138796800D01*
X88732877Y-138796800D02*
X88656687Y-138834895D01*
X88656687Y-138834895D02*
X88504306Y-138834895D01*
X88504306Y-138834895D02*
X88428115Y-138796800D01*
X88428115Y-138796800D02*
X88390020Y-138758704D01*
X88390020Y-138758704D02*
X88351925Y-138682514D01*
X88351925Y-138682514D02*
X88351925Y-138530133D01*
X88351925Y-138530133D02*
X88390020Y-138453942D01*
X88390020Y-138453942D02*
X88428115Y-138415847D01*
X88428115Y-138415847D02*
X88504306Y-138377752D01*
X87666210Y-138034895D02*
X87818591Y-138034895D01*
X87818591Y-138034895D02*
X87894782Y-138072990D01*
X87894782Y-138072990D02*
X87932877Y-138111085D01*
X87932877Y-138111085D02*
X88009067Y-138225371D01*
X88009067Y-138225371D02*
X88047163Y-138377752D01*
X88047163Y-138377752D02*
X88047163Y-138682514D01*
X88047163Y-138682514D02*
X88009067Y-138758704D01*
X88009067Y-138758704D02*
X87970972Y-138796800D01*
X87970972Y-138796800D02*
X87894782Y-138834895D01*
X87894782Y-138834895D02*
X87742401Y-138834895D01*
X87742401Y-138834895D02*
X87666210Y-138796800D01*
X87666210Y-138796800D02*
X87628115Y-138758704D01*
X87628115Y-138758704D02*
X87590020Y-138682514D01*
X87590020Y-138682514D02*
X87590020Y-138492038D01*
X87590020Y-138492038D02*
X87628115Y-138415847D01*
X87628115Y-138415847D02*
X87666210Y-138377752D01*
X87666210Y-138377752D02*
X87742401Y-138339657D01*
X87742401Y-138339657D02*
X87894782Y-138339657D01*
X87894782Y-138339657D02*
X87970972Y-138377752D01*
X87970972Y-138377752D02*
X88009067Y-138415847D01*
X88009067Y-138415847D02*
X88047163Y-138492038D01*
X87247162Y-138834895D02*
X87247162Y-138301561D01*
X87247162Y-138377752D02*
X87209067Y-138339657D01*
X87209067Y-138339657D02*
X87132877Y-138301561D01*
X87132877Y-138301561D02*
X87018591Y-138301561D01*
X87018591Y-138301561D02*
X86942400Y-138339657D01*
X86942400Y-138339657D02*
X86904305Y-138415847D01*
X86904305Y-138415847D02*
X86904305Y-138834895D01*
X86904305Y-138415847D02*
X86866210Y-138339657D01*
X86866210Y-138339657D02*
X86790019Y-138301561D01*
X86790019Y-138301561D02*
X86675734Y-138301561D01*
X86675734Y-138301561D02*
X86599543Y-138339657D01*
X86599543Y-138339657D02*
X86561448Y-138415847D01*
X86561448Y-138415847D02*
X86561448Y-138834895D01*
X86180495Y-138834895D02*
X86180495Y-138301561D01*
X86180495Y-138377752D02*
X86142400Y-138339657D01*
X86142400Y-138339657D02*
X86066210Y-138301561D01*
X86066210Y-138301561D02*
X85951924Y-138301561D01*
X85951924Y-138301561D02*
X85875733Y-138339657D01*
X85875733Y-138339657D02*
X85837638Y-138415847D01*
X85837638Y-138415847D02*
X85837638Y-138834895D01*
X85837638Y-138415847D02*
X85799543Y-138339657D01*
X85799543Y-138339657D02*
X85723352Y-138301561D01*
X85723352Y-138301561D02*
X85609067Y-138301561D01*
X85609067Y-138301561D02*
X85532876Y-138339657D01*
X85532876Y-138339657D02*
X85494781Y-138415847D01*
X85494781Y-138415847D02*
X85494781Y-138834895D01*
X100202419Y-56453693D02*
X100202419Y-55882265D01*
X100202419Y-56167979D02*
X99202419Y-56167979D01*
X99202419Y-56167979D02*
X99345276Y-56072741D01*
X99345276Y-56072741D02*
X99440514Y-55977503D01*
X99440514Y-55977503D02*
X99488133Y-55882265D01*
X99535752Y-57310836D02*
X100202419Y-57310836D01*
X99154800Y-57072741D02*
X99869085Y-56834646D01*
X99869085Y-56834646D02*
X99869085Y-57453693D01*
X100202419Y-58358455D02*
X100202419Y-57787027D01*
X100202419Y-58072741D02*
X99202419Y-58072741D01*
X99202419Y-58072741D02*
X99345276Y-57977503D01*
X99345276Y-57977503D02*
X99440514Y-57882265D01*
X99440514Y-57882265D02*
X99488133Y-57787027D01*
X100535752Y-59787027D02*
X99107180Y-59787027D01*
X100202419Y-61787027D02*
X100202419Y-61215599D01*
X100202419Y-61501313D02*
X99202419Y-61501313D01*
X99202419Y-61501313D02*
X99345276Y-61406075D01*
X99345276Y-61406075D02*
X99440514Y-61310837D01*
X99440514Y-61310837D02*
X99488133Y-61215599D01*
X99202419Y-62120361D02*
X99202419Y-62739408D01*
X99202419Y-62739408D02*
X99583371Y-62406075D01*
X99583371Y-62406075D02*
X99583371Y-62548932D01*
X99583371Y-62548932D02*
X99630990Y-62644170D01*
X99630990Y-62644170D02*
X99678609Y-62691789D01*
X99678609Y-62691789D02*
X99773847Y-62739408D01*
X99773847Y-62739408D02*
X100011942Y-62739408D01*
X100011942Y-62739408D02*
X100107180Y-62691789D01*
X100107180Y-62691789D02*
X100154800Y-62644170D01*
X100154800Y-62644170D02*
X100202419Y-62548932D01*
X100202419Y-62548932D02*
X100202419Y-62263218D01*
X100202419Y-62263218D02*
X100154800Y-62167980D01*
X100154800Y-62167980D02*
X100107180Y-62120361D01*
X99535752Y-63596551D02*
X100202419Y-63596551D01*
X99154800Y-63358456D02*
X99869085Y-63120361D01*
X99869085Y-63120361D02*
X99869085Y-63739408D01*
X102742419Y-56453693D02*
X102742419Y-55882265D01*
X102742419Y-56167979D02*
X101742419Y-56167979D01*
X101742419Y-56167979D02*
X101885276Y-56072741D01*
X101885276Y-56072741D02*
X101980514Y-55977503D01*
X101980514Y-55977503D02*
X102028133Y-55882265D01*
X102075752Y-57310836D02*
X102742419Y-57310836D01*
X101694800Y-57072741D02*
X102409085Y-56834646D01*
X102409085Y-56834646D02*
X102409085Y-57453693D01*
X101742419Y-58025122D02*
X101742419Y-58120360D01*
X101742419Y-58120360D02*
X101790038Y-58215598D01*
X101790038Y-58215598D02*
X101837657Y-58263217D01*
X101837657Y-58263217D02*
X101932895Y-58310836D01*
X101932895Y-58310836D02*
X102123371Y-58358455D01*
X102123371Y-58358455D02*
X102361466Y-58358455D01*
X102361466Y-58358455D02*
X102551942Y-58310836D01*
X102551942Y-58310836D02*
X102647180Y-58263217D01*
X102647180Y-58263217D02*
X102694800Y-58215598D01*
X102694800Y-58215598D02*
X102742419Y-58120360D01*
X102742419Y-58120360D02*
X102742419Y-58025122D01*
X102742419Y-58025122D02*
X102694800Y-57929884D01*
X102694800Y-57929884D02*
X102647180Y-57882265D01*
X102647180Y-57882265D02*
X102551942Y-57834646D01*
X102551942Y-57834646D02*
X102361466Y-57787027D01*
X102361466Y-57787027D02*
X102123371Y-57787027D01*
X102123371Y-57787027D02*
X101932895Y-57834646D01*
X101932895Y-57834646D02*
X101837657Y-57882265D01*
X101837657Y-57882265D02*
X101790038Y-57929884D01*
X101790038Y-57929884D02*
X101742419Y-58025122D01*
X103075752Y-59787027D02*
X101647180Y-59787027D01*
X102742419Y-61787027D02*
X102742419Y-61215599D01*
X102742419Y-61501313D02*
X101742419Y-61501313D01*
X101742419Y-61501313D02*
X101885276Y-61406075D01*
X101885276Y-61406075D02*
X101980514Y-61310837D01*
X101980514Y-61310837D02*
X102028133Y-61215599D01*
X101742419Y-62120361D02*
X101742419Y-62739408D01*
X101742419Y-62739408D02*
X102123371Y-62406075D01*
X102123371Y-62406075D02*
X102123371Y-62548932D01*
X102123371Y-62548932D02*
X102170990Y-62644170D01*
X102170990Y-62644170D02*
X102218609Y-62691789D01*
X102218609Y-62691789D02*
X102313847Y-62739408D01*
X102313847Y-62739408D02*
X102551942Y-62739408D01*
X102551942Y-62739408D02*
X102647180Y-62691789D01*
X102647180Y-62691789D02*
X102694800Y-62644170D01*
X102694800Y-62644170D02*
X102742419Y-62548932D01*
X102742419Y-62548932D02*
X102742419Y-62263218D01*
X102742419Y-62263218D02*
X102694800Y-62167980D01*
X102694800Y-62167980D02*
X102647180Y-62120361D01*
X101742419Y-63644170D02*
X101742419Y-63167980D01*
X101742419Y-63167980D02*
X102218609Y-63120361D01*
X102218609Y-63120361D02*
X102170990Y-63167980D01*
X102170990Y-63167980D02*
X102123371Y-63263218D01*
X102123371Y-63263218D02*
X102123371Y-63501313D01*
X102123371Y-63501313D02*
X102170990Y-63596551D01*
X102170990Y-63596551D02*
X102218609Y-63644170D01*
X102218609Y-63644170D02*
X102313847Y-63691789D01*
X102313847Y-63691789D02*
X102551942Y-63691789D01*
X102551942Y-63691789D02*
X102647180Y-63644170D01*
X102647180Y-63644170D02*
X102694800Y-63596551D01*
X102694800Y-63596551D02*
X102742419Y-63501313D01*
X102742419Y-63501313D02*
X102742419Y-63263218D01*
X102742419Y-63263218D02*
X102694800Y-63167980D01*
X102694800Y-63167980D02*
X102647180Y-63120361D01*
X86804038Y-59755693D02*
X86756419Y-59660455D01*
X86756419Y-59660455D02*
X86756419Y-59517598D01*
X86756419Y-59517598D02*
X86804038Y-59374741D01*
X86804038Y-59374741D02*
X86899276Y-59279503D01*
X86899276Y-59279503D02*
X86994514Y-59231884D01*
X86994514Y-59231884D02*
X87184990Y-59184265D01*
X87184990Y-59184265D02*
X87327847Y-59184265D01*
X87327847Y-59184265D02*
X87518323Y-59231884D01*
X87518323Y-59231884D02*
X87613561Y-59279503D01*
X87613561Y-59279503D02*
X87708800Y-59374741D01*
X87708800Y-59374741D02*
X87756419Y-59517598D01*
X87756419Y-59517598D02*
X87756419Y-59612836D01*
X87756419Y-59612836D02*
X87708800Y-59755693D01*
X87708800Y-59755693D02*
X87661180Y-59803312D01*
X87661180Y-59803312D02*
X87327847Y-59803312D01*
X87327847Y-59803312D02*
X87327847Y-59612836D01*
X87756419Y-60231884D02*
X86756419Y-60231884D01*
X86756419Y-60231884D02*
X87756419Y-60803312D01*
X87756419Y-60803312D02*
X86756419Y-60803312D01*
X87756419Y-61279503D02*
X86756419Y-61279503D01*
X86756419Y-61279503D02*
X86756419Y-61517598D01*
X86756419Y-61517598D02*
X86804038Y-61660455D01*
X86804038Y-61660455D02*
X86899276Y-61755693D01*
X86899276Y-61755693D02*
X86994514Y-61803312D01*
X86994514Y-61803312D02*
X87184990Y-61850931D01*
X87184990Y-61850931D02*
X87327847Y-61850931D01*
X87327847Y-61850931D02*
X87518323Y-61803312D01*
X87518323Y-61803312D02*
X87613561Y-61755693D01*
X87613561Y-61755693D02*
X87708800Y-61660455D01*
X87708800Y-61660455D02*
X87756419Y-61517598D01*
X87756419Y-61517598D02*
X87756419Y-61279503D01*
X123062419Y-56961693D02*
X123062419Y-56390265D01*
X123062419Y-56675979D02*
X122062419Y-56675979D01*
X122062419Y-56675979D02*
X122205276Y-56580741D01*
X122205276Y-56580741D02*
X122300514Y-56485503D01*
X122300514Y-56485503D02*
X122348133Y-56390265D01*
X122062419Y-57580741D02*
X122062419Y-57675979D01*
X122062419Y-57675979D02*
X122110038Y-57771217D01*
X122110038Y-57771217D02*
X122157657Y-57818836D01*
X122157657Y-57818836D02*
X122252895Y-57866455D01*
X122252895Y-57866455D02*
X122443371Y-57914074D01*
X122443371Y-57914074D02*
X122681466Y-57914074D01*
X122681466Y-57914074D02*
X122871942Y-57866455D01*
X122871942Y-57866455D02*
X122967180Y-57818836D01*
X122967180Y-57818836D02*
X123014800Y-57771217D01*
X123014800Y-57771217D02*
X123062419Y-57675979D01*
X123062419Y-57675979D02*
X123062419Y-57580741D01*
X123062419Y-57580741D02*
X123014800Y-57485503D01*
X123014800Y-57485503D02*
X122967180Y-57437884D01*
X122967180Y-57437884D02*
X122871942Y-57390265D01*
X122871942Y-57390265D02*
X122681466Y-57342646D01*
X122681466Y-57342646D02*
X122443371Y-57342646D01*
X122443371Y-57342646D02*
X122252895Y-57390265D01*
X122252895Y-57390265D02*
X122157657Y-57437884D01*
X122157657Y-57437884D02*
X122110038Y-57485503D01*
X122110038Y-57485503D02*
X122062419Y-57580741D01*
X123062419Y-58866455D02*
X123062419Y-58295027D01*
X123062419Y-58580741D02*
X122062419Y-58580741D01*
X122062419Y-58580741D02*
X122205276Y-58485503D01*
X122205276Y-58485503D02*
X122300514Y-58390265D01*
X122300514Y-58390265D02*
X122348133Y-58295027D01*
X123395752Y-60295027D02*
X121967180Y-60295027D01*
X123062419Y-61818837D02*
X123062419Y-62009313D01*
X123062419Y-62009313D02*
X123014800Y-62104551D01*
X123014800Y-62104551D02*
X122967180Y-62152170D01*
X122967180Y-62152170D02*
X122824323Y-62247408D01*
X122824323Y-62247408D02*
X122633847Y-62295027D01*
X122633847Y-62295027D02*
X122252895Y-62295027D01*
X122252895Y-62295027D02*
X122157657Y-62247408D01*
X122157657Y-62247408D02*
X122110038Y-62199789D01*
X122110038Y-62199789D02*
X122062419Y-62104551D01*
X122062419Y-62104551D02*
X122062419Y-61914075D01*
X122062419Y-61914075D02*
X122110038Y-61818837D01*
X122110038Y-61818837D02*
X122157657Y-61771218D01*
X122157657Y-61771218D02*
X122252895Y-61723599D01*
X122252895Y-61723599D02*
X122490990Y-61723599D01*
X122490990Y-61723599D02*
X122586228Y-61771218D01*
X122586228Y-61771218D02*
X122633847Y-61818837D01*
X122633847Y-61818837D02*
X122681466Y-61914075D01*
X122681466Y-61914075D02*
X122681466Y-62104551D01*
X122681466Y-62104551D02*
X122633847Y-62199789D01*
X122633847Y-62199789D02*
X122586228Y-62247408D01*
X122586228Y-62247408D02*
X122490990Y-62295027D01*
X122490990Y-62866456D02*
X122443371Y-62771218D01*
X122443371Y-62771218D02*
X122395752Y-62723599D01*
X122395752Y-62723599D02*
X122300514Y-62675980D01*
X122300514Y-62675980D02*
X122252895Y-62675980D01*
X122252895Y-62675980D02*
X122157657Y-62723599D01*
X122157657Y-62723599D02*
X122110038Y-62771218D01*
X122110038Y-62771218D02*
X122062419Y-62866456D01*
X122062419Y-62866456D02*
X122062419Y-63056932D01*
X122062419Y-63056932D02*
X122110038Y-63152170D01*
X122110038Y-63152170D02*
X122157657Y-63199789D01*
X122157657Y-63199789D02*
X122252895Y-63247408D01*
X122252895Y-63247408D02*
X122300514Y-63247408D01*
X122300514Y-63247408D02*
X122395752Y-63199789D01*
X122395752Y-63199789D02*
X122443371Y-63152170D01*
X122443371Y-63152170D02*
X122490990Y-63056932D01*
X122490990Y-63056932D02*
X122490990Y-62866456D01*
X122490990Y-62866456D02*
X122538609Y-62771218D01*
X122538609Y-62771218D02*
X122586228Y-62723599D01*
X122586228Y-62723599D02*
X122681466Y-62675980D01*
X122681466Y-62675980D02*
X122871942Y-62675980D01*
X122871942Y-62675980D02*
X122967180Y-62723599D01*
X122967180Y-62723599D02*
X123014800Y-62771218D01*
X123014800Y-62771218D02*
X123062419Y-62866456D01*
X123062419Y-62866456D02*
X123062419Y-63056932D01*
X123062419Y-63056932D02*
X123014800Y-63152170D01*
X123014800Y-63152170D02*
X122967180Y-63199789D01*
X122967180Y-63199789D02*
X122871942Y-63247408D01*
X122871942Y-63247408D02*
X122681466Y-63247408D01*
X122681466Y-63247408D02*
X122586228Y-63199789D01*
X122586228Y-63199789D02*
X122538609Y-63152170D01*
X122538609Y-63152170D02*
X122490990Y-63056932D01*
X81422419Y-146766646D02*
X81422419Y-147385693D01*
X81422419Y-147385693D02*
X81803371Y-147052360D01*
X81803371Y-147052360D02*
X81803371Y-147195217D01*
X81803371Y-147195217D02*
X81850990Y-147290455D01*
X81850990Y-147290455D02*
X81898609Y-147338074D01*
X81898609Y-147338074D02*
X81993847Y-147385693D01*
X81993847Y-147385693D02*
X82231942Y-147385693D01*
X82231942Y-147385693D02*
X82327180Y-147338074D01*
X82327180Y-147338074D02*
X82374800Y-147290455D01*
X82374800Y-147290455D02*
X82422419Y-147195217D01*
X82422419Y-147195217D02*
X82422419Y-146909503D01*
X82422419Y-146909503D02*
X82374800Y-146814265D01*
X82374800Y-146814265D02*
X82327180Y-146766646D01*
X81850990Y-147957122D02*
X81803371Y-147861884D01*
X81803371Y-147861884D02*
X81755752Y-147814265D01*
X81755752Y-147814265D02*
X81660514Y-147766646D01*
X81660514Y-147766646D02*
X81612895Y-147766646D01*
X81612895Y-147766646D02*
X81517657Y-147814265D01*
X81517657Y-147814265D02*
X81470038Y-147861884D01*
X81470038Y-147861884D02*
X81422419Y-147957122D01*
X81422419Y-147957122D02*
X81422419Y-148147598D01*
X81422419Y-148147598D02*
X81470038Y-148242836D01*
X81470038Y-148242836D02*
X81517657Y-148290455D01*
X81517657Y-148290455D02*
X81612895Y-148338074D01*
X81612895Y-148338074D02*
X81660514Y-148338074D01*
X81660514Y-148338074D02*
X81755752Y-148290455D01*
X81755752Y-148290455D02*
X81803371Y-148242836D01*
X81803371Y-148242836D02*
X81850990Y-148147598D01*
X81850990Y-148147598D02*
X81850990Y-147957122D01*
X81850990Y-147957122D02*
X81898609Y-147861884D01*
X81898609Y-147861884D02*
X81946228Y-147814265D01*
X81946228Y-147814265D02*
X82041466Y-147766646D01*
X82041466Y-147766646D02*
X82231942Y-147766646D01*
X82231942Y-147766646D02*
X82327180Y-147814265D01*
X82327180Y-147814265D02*
X82374800Y-147861884D01*
X82374800Y-147861884D02*
X82422419Y-147957122D01*
X82422419Y-147957122D02*
X82422419Y-148147598D01*
X82422419Y-148147598D02*
X82374800Y-148242836D01*
X82374800Y-148242836D02*
X82327180Y-148290455D01*
X82327180Y-148290455D02*
X82231942Y-148338074D01*
X82231942Y-148338074D02*
X82041466Y-148338074D01*
X82041466Y-148338074D02*
X81946228Y-148290455D01*
X81946228Y-148290455D02*
X81898609Y-148242836D01*
X81898609Y-148242836D02*
X81850990Y-148147598D01*
X82755752Y-149766646D02*
X81327180Y-149766646D01*
X81755752Y-151671408D02*
X82422419Y-151671408D01*
X81374800Y-151433313D02*
X82089085Y-151195218D01*
X82089085Y-151195218D02*
X82089085Y-151814265D01*
X81422419Y-152099980D02*
X81422419Y-152766646D01*
X81422419Y-152766646D02*
X82422419Y-152338075D01*
X79882419Y-57977693D02*
X79882419Y-57406265D01*
X79882419Y-57691979D02*
X78882419Y-57691979D01*
X78882419Y-57691979D02*
X79025276Y-57596741D01*
X79025276Y-57596741D02*
X79120514Y-57501503D01*
X79120514Y-57501503D02*
X79168133Y-57406265D01*
X78977657Y-58358646D02*
X78930038Y-58406265D01*
X78930038Y-58406265D02*
X78882419Y-58501503D01*
X78882419Y-58501503D02*
X78882419Y-58739598D01*
X78882419Y-58739598D02*
X78930038Y-58834836D01*
X78930038Y-58834836D02*
X78977657Y-58882455D01*
X78977657Y-58882455D02*
X79072895Y-58930074D01*
X79072895Y-58930074D02*
X79168133Y-58930074D01*
X79168133Y-58930074D02*
X79310990Y-58882455D01*
X79310990Y-58882455D02*
X79882419Y-58311027D01*
X79882419Y-58311027D02*
X79882419Y-58930074D01*
X80215752Y-60358646D02*
X78787180Y-60358646D01*
X79882419Y-62358646D02*
X79882419Y-61787218D01*
X79882419Y-62072932D02*
X78882419Y-62072932D01*
X78882419Y-62072932D02*
X79025276Y-61977694D01*
X79025276Y-61977694D02*
X79120514Y-61882456D01*
X79120514Y-61882456D02*
X79168133Y-61787218D01*
X79882419Y-63311027D02*
X79882419Y-62739599D01*
X79882419Y-63025313D02*
X78882419Y-63025313D01*
X78882419Y-63025313D02*
X79025276Y-62930075D01*
X79025276Y-62930075D02*
X79120514Y-62834837D01*
X79120514Y-62834837D02*
X79168133Y-62739599D01*
X135190990Y-147004741D02*
X135143371Y-146909503D01*
X135143371Y-146909503D02*
X135095752Y-146861884D01*
X135095752Y-146861884D02*
X135000514Y-146814265D01*
X135000514Y-146814265D02*
X134952895Y-146814265D01*
X134952895Y-146814265D02*
X134857657Y-146861884D01*
X134857657Y-146861884D02*
X134810038Y-146909503D01*
X134810038Y-146909503D02*
X134762419Y-147004741D01*
X134762419Y-147004741D02*
X134762419Y-147195217D01*
X134762419Y-147195217D02*
X134810038Y-147290455D01*
X134810038Y-147290455D02*
X134857657Y-147338074D01*
X134857657Y-147338074D02*
X134952895Y-147385693D01*
X134952895Y-147385693D02*
X135000514Y-147385693D01*
X135000514Y-147385693D02*
X135095752Y-147338074D01*
X135095752Y-147338074D02*
X135143371Y-147290455D01*
X135143371Y-147290455D02*
X135190990Y-147195217D01*
X135190990Y-147195217D02*
X135190990Y-147004741D01*
X135190990Y-147004741D02*
X135238609Y-146909503D01*
X135238609Y-146909503D02*
X135286228Y-146861884D01*
X135286228Y-146861884D02*
X135381466Y-146814265D01*
X135381466Y-146814265D02*
X135571942Y-146814265D01*
X135571942Y-146814265D02*
X135667180Y-146861884D01*
X135667180Y-146861884D02*
X135714800Y-146909503D01*
X135714800Y-146909503D02*
X135762419Y-147004741D01*
X135762419Y-147004741D02*
X135762419Y-147195217D01*
X135762419Y-147195217D02*
X135714800Y-147290455D01*
X135714800Y-147290455D02*
X135667180Y-147338074D01*
X135667180Y-147338074D02*
X135571942Y-147385693D01*
X135571942Y-147385693D02*
X135381466Y-147385693D01*
X135381466Y-147385693D02*
X135286228Y-147338074D01*
X135286228Y-147338074D02*
X135238609Y-147290455D01*
X135238609Y-147290455D02*
X135190990Y-147195217D01*
X134762419Y-148004741D02*
X134762419Y-148099979D01*
X134762419Y-148099979D02*
X134810038Y-148195217D01*
X134810038Y-148195217D02*
X134857657Y-148242836D01*
X134857657Y-148242836D02*
X134952895Y-148290455D01*
X134952895Y-148290455D02*
X135143371Y-148338074D01*
X135143371Y-148338074D02*
X135381466Y-148338074D01*
X135381466Y-148338074D02*
X135571942Y-148290455D01*
X135571942Y-148290455D02*
X135667180Y-148242836D01*
X135667180Y-148242836D02*
X135714800Y-148195217D01*
X135714800Y-148195217D02*
X135762419Y-148099979D01*
X135762419Y-148099979D02*
X135762419Y-148004741D01*
X135762419Y-148004741D02*
X135714800Y-147909503D01*
X135714800Y-147909503D02*
X135667180Y-147861884D01*
X135667180Y-147861884D02*
X135571942Y-147814265D01*
X135571942Y-147814265D02*
X135381466Y-147766646D01*
X135381466Y-147766646D02*
X135143371Y-147766646D01*
X135143371Y-147766646D02*
X134952895Y-147814265D01*
X134952895Y-147814265D02*
X134857657Y-147861884D01*
X134857657Y-147861884D02*
X134810038Y-147909503D01*
X134810038Y-147909503D02*
X134762419Y-148004741D01*
X136095752Y-149766646D02*
X134667180Y-149766646D01*
X135190990Y-151385694D02*
X135143371Y-151290456D01*
X135143371Y-151290456D02*
X135095752Y-151242837D01*
X135095752Y-151242837D02*
X135000514Y-151195218D01*
X135000514Y-151195218D02*
X134952895Y-151195218D01*
X134952895Y-151195218D02*
X134857657Y-151242837D01*
X134857657Y-151242837D02*
X134810038Y-151290456D01*
X134810038Y-151290456D02*
X134762419Y-151385694D01*
X134762419Y-151385694D02*
X134762419Y-151576170D01*
X134762419Y-151576170D02*
X134810038Y-151671408D01*
X134810038Y-151671408D02*
X134857657Y-151719027D01*
X134857657Y-151719027D02*
X134952895Y-151766646D01*
X134952895Y-151766646D02*
X135000514Y-151766646D01*
X135000514Y-151766646D02*
X135095752Y-151719027D01*
X135095752Y-151719027D02*
X135143371Y-151671408D01*
X135143371Y-151671408D02*
X135190990Y-151576170D01*
X135190990Y-151576170D02*
X135190990Y-151385694D01*
X135190990Y-151385694D02*
X135238609Y-151290456D01*
X135238609Y-151290456D02*
X135286228Y-151242837D01*
X135286228Y-151242837D02*
X135381466Y-151195218D01*
X135381466Y-151195218D02*
X135571942Y-151195218D01*
X135571942Y-151195218D02*
X135667180Y-151242837D01*
X135667180Y-151242837D02*
X135714800Y-151290456D01*
X135714800Y-151290456D02*
X135762419Y-151385694D01*
X135762419Y-151385694D02*
X135762419Y-151576170D01*
X135762419Y-151576170D02*
X135714800Y-151671408D01*
X135714800Y-151671408D02*
X135667180Y-151719027D01*
X135667180Y-151719027D02*
X135571942Y-151766646D01*
X135571942Y-151766646D02*
X135381466Y-151766646D01*
X135381466Y-151766646D02*
X135286228Y-151719027D01*
X135286228Y-151719027D02*
X135238609Y-151671408D01*
X135238609Y-151671408D02*
X135190990Y-151576170D01*
X135762419Y-152719027D02*
X135762419Y-152147599D01*
X135762419Y-152433313D02*
X134762419Y-152433313D01*
X134762419Y-152433313D02*
X134905276Y-152338075D01*
X134905276Y-152338075D02*
X135000514Y-152242837D01*
X135000514Y-152242837D02*
X135048133Y-152147599D01*
X104282419Y-147338074D02*
X104282419Y-146861884D01*
X104282419Y-146861884D02*
X104758609Y-146814265D01*
X104758609Y-146814265D02*
X104710990Y-146861884D01*
X104710990Y-146861884D02*
X104663371Y-146957122D01*
X104663371Y-146957122D02*
X104663371Y-147195217D01*
X104663371Y-147195217D02*
X104710990Y-147290455D01*
X104710990Y-147290455D02*
X104758609Y-147338074D01*
X104758609Y-147338074D02*
X104853847Y-147385693D01*
X104853847Y-147385693D02*
X105091942Y-147385693D01*
X105091942Y-147385693D02*
X105187180Y-147338074D01*
X105187180Y-147338074D02*
X105234800Y-147290455D01*
X105234800Y-147290455D02*
X105282419Y-147195217D01*
X105282419Y-147195217D02*
X105282419Y-146957122D01*
X105282419Y-146957122D02*
X105234800Y-146861884D01*
X105234800Y-146861884D02*
X105187180Y-146814265D01*
X104377657Y-147766646D02*
X104330038Y-147814265D01*
X104330038Y-147814265D02*
X104282419Y-147909503D01*
X104282419Y-147909503D02*
X104282419Y-148147598D01*
X104282419Y-148147598D02*
X104330038Y-148242836D01*
X104330038Y-148242836D02*
X104377657Y-148290455D01*
X104377657Y-148290455D02*
X104472895Y-148338074D01*
X104472895Y-148338074D02*
X104568133Y-148338074D01*
X104568133Y-148338074D02*
X104710990Y-148290455D01*
X104710990Y-148290455D02*
X105282419Y-147719027D01*
X105282419Y-147719027D02*
X105282419Y-148338074D01*
X105615752Y-149766646D02*
X104187180Y-149766646D01*
X104282419Y-151719027D02*
X104282419Y-151242837D01*
X104282419Y-151242837D02*
X104758609Y-151195218D01*
X104758609Y-151195218D02*
X104710990Y-151242837D01*
X104710990Y-151242837D02*
X104663371Y-151338075D01*
X104663371Y-151338075D02*
X104663371Y-151576170D01*
X104663371Y-151576170D02*
X104710990Y-151671408D01*
X104710990Y-151671408D02*
X104758609Y-151719027D01*
X104758609Y-151719027D02*
X104853847Y-151766646D01*
X104853847Y-151766646D02*
X105091942Y-151766646D01*
X105091942Y-151766646D02*
X105187180Y-151719027D01*
X105187180Y-151719027D02*
X105234800Y-151671408D01*
X105234800Y-151671408D02*
X105282419Y-151576170D01*
X105282419Y-151576170D02*
X105282419Y-151338075D01*
X105282419Y-151338075D02*
X105234800Y-151242837D01*
X105234800Y-151242837D02*
X105187180Y-151195218D01*
X104282419Y-152385694D02*
X104282419Y-152480932D01*
X104282419Y-152480932D02*
X104330038Y-152576170D01*
X104330038Y-152576170D02*
X104377657Y-152623789D01*
X104377657Y-152623789D02*
X104472895Y-152671408D01*
X104472895Y-152671408D02*
X104663371Y-152719027D01*
X104663371Y-152719027D02*
X104901466Y-152719027D01*
X104901466Y-152719027D02*
X105091942Y-152671408D01*
X105091942Y-152671408D02*
X105187180Y-152623789D01*
X105187180Y-152623789D02*
X105234800Y-152576170D01*
X105234800Y-152576170D02*
X105282419Y-152480932D01*
X105282419Y-152480932D02*
X105282419Y-152385694D01*
X105282419Y-152385694D02*
X105234800Y-152290456D01*
X105234800Y-152290456D02*
X105187180Y-152242837D01*
X105187180Y-152242837D02*
X105091942Y-152195218D01*
X105091942Y-152195218D02*
X104901466Y-152147599D01*
X104901466Y-152147599D02*
X104663371Y-152147599D01*
X104663371Y-152147599D02*
X104472895Y-152195218D01*
X104472895Y-152195218D02*
X104377657Y-152242837D01*
X104377657Y-152242837D02*
X104330038Y-152290456D01*
X104330038Y-152290456D02*
X104282419Y-152385694D01*
X128142419Y-56961693D02*
X128142419Y-56390265D01*
X128142419Y-56675979D02*
X127142419Y-56675979D01*
X127142419Y-56675979D02*
X127285276Y-56580741D01*
X127285276Y-56580741D02*
X127380514Y-56485503D01*
X127380514Y-56485503D02*
X127428133Y-56390265D01*
X127142419Y-57580741D02*
X127142419Y-57675979D01*
X127142419Y-57675979D02*
X127190038Y-57771217D01*
X127190038Y-57771217D02*
X127237657Y-57818836D01*
X127237657Y-57818836D02*
X127332895Y-57866455D01*
X127332895Y-57866455D02*
X127523371Y-57914074D01*
X127523371Y-57914074D02*
X127761466Y-57914074D01*
X127761466Y-57914074D02*
X127951942Y-57866455D01*
X127951942Y-57866455D02*
X128047180Y-57818836D01*
X128047180Y-57818836D02*
X128094800Y-57771217D01*
X128094800Y-57771217D02*
X128142419Y-57675979D01*
X128142419Y-57675979D02*
X128142419Y-57580741D01*
X128142419Y-57580741D02*
X128094800Y-57485503D01*
X128094800Y-57485503D02*
X128047180Y-57437884D01*
X128047180Y-57437884D02*
X127951942Y-57390265D01*
X127951942Y-57390265D02*
X127761466Y-57342646D01*
X127761466Y-57342646D02*
X127523371Y-57342646D01*
X127523371Y-57342646D02*
X127332895Y-57390265D01*
X127332895Y-57390265D02*
X127237657Y-57437884D01*
X127237657Y-57437884D02*
X127190038Y-57485503D01*
X127190038Y-57485503D02*
X127142419Y-57580741D01*
X127142419Y-58818836D02*
X127142419Y-58342646D01*
X127142419Y-58342646D02*
X127618609Y-58295027D01*
X127618609Y-58295027D02*
X127570990Y-58342646D01*
X127570990Y-58342646D02*
X127523371Y-58437884D01*
X127523371Y-58437884D02*
X127523371Y-58675979D01*
X127523371Y-58675979D02*
X127570990Y-58771217D01*
X127570990Y-58771217D02*
X127618609Y-58818836D01*
X127618609Y-58818836D02*
X127713847Y-58866455D01*
X127713847Y-58866455D02*
X127951942Y-58866455D01*
X127951942Y-58866455D02*
X128047180Y-58818836D01*
X128047180Y-58818836D02*
X128094800Y-58771217D01*
X128094800Y-58771217D02*
X128142419Y-58675979D01*
X128142419Y-58675979D02*
X128142419Y-58437884D01*
X128142419Y-58437884D02*
X128094800Y-58342646D01*
X128094800Y-58342646D02*
X128047180Y-58295027D01*
X128475752Y-60295027D02*
X127047180Y-60295027D01*
X128142419Y-61818837D02*
X128142419Y-62009313D01*
X128142419Y-62009313D02*
X128094800Y-62104551D01*
X128094800Y-62104551D02*
X128047180Y-62152170D01*
X128047180Y-62152170D02*
X127904323Y-62247408D01*
X127904323Y-62247408D02*
X127713847Y-62295027D01*
X127713847Y-62295027D02*
X127332895Y-62295027D01*
X127332895Y-62295027D02*
X127237657Y-62247408D01*
X127237657Y-62247408D02*
X127190038Y-62199789D01*
X127190038Y-62199789D02*
X127142419Y-62104551D01*
X127142419Y-62104551D02*
X127142419Y-61914075D01*
X127142419Y-61914075D02*
X127190038Y-61818837D01*
X127190038Y-61818837D02*
X127237657Y-61771218D01*
X127237657Y-61771218D02*
X127332895Y-61723599D01*
X127332895Y-61723599D02*
X127570990Y-61723599D01*
X127570990Y-61723599D02*
X127666228Y-61771218D01*
X127666228Y-61771218D02*
X127713847Y-61818837D01*
X127713847Y-61818837D02*
X127761466Y-61914075D01*
X127761466Y-61914075D02*
X127761466Y-62104551D01*
X127761466Y-62104551D02*
X127713847Y-62199789D01*
X127713847Y-62199789D02*
X127666228Y-62247408D01*
X127666228Y-62247408D02*
X127570990Y-62295027D01*
X127142419Y-63152170D02*
X127142419Y-62961694D01*
X127142419Y-62961694D02*
X127190038Y-62866456D01*
X127190038Y-62866456D02*
X127237657Y-62818837D01*
X127237657Y-62818837D02*
X127380514Y-62723599D01*
X127380514Y-62723599D02*
X127570990Y-62675980D01*
X127570990Y-62675980D02*
X127951942Y-62675980D01*
X127951942Y-62675980D02*
X128047180Y-62723599D01*
X128047180Y-62723599D02*
X128094800Y-62771218D01*
X128094800Y-62771218D02*
X128142419Y-62866456D01*
X128142419Y-62866456D02*
X128142419Y-63056932D01*
X128142419Y-63056932D02*
X128094800Y-63152170D01*
X128094800Y-63152170D02*
X128047180Y-63199789D01*
X128047180Y-63199789D02*
X127951942Y-63247408D01*
X127951942Y-63247408D02*
X127713847Y-63247408D01*
X127713847Y-63247408D02*
X127618609Y-63199789D01*
X127618609Y-63199789D02*
X127570990Y-63152170D01*
X127570990Y-63152170D02*
X127523371Y-63056932D01*
X127523371Y-63056932D02*
X127523371Y-62866456D01*
X127523371Y-62866456D02*
X127570990Y-62771218D01*
X127570990Y-62771218D02*
X127618609Y-62723599D01*
X127618609Y-62723599D02*
X127713847Y-62675980D01*
X112156419Y-58628646D02*
X112156419Y-59247693D01*
X112156419Y-59247693D02*
X112537371Y-58914360D01*
X112537371Y-58914360D02*
X112537371Y-59057217D01*
X112537371Y-59057217D02*
X112584990Y-59152455D01*
X112584990Y-59152455D02*
X112632609Y-59200074D01*
X112632609Y-59200074D02*
X112727847Y-59247693D01*
X112727847Y-59247693D02*
X112965942Y-59247693D01*
X112965942Y-59247693D02*
X113061180Y-59200074D01*
X113061180Y-59200074D02*
X113108800Y-59152455D01*
X113108800Y-59152455D02*
X113156419Y-59057217D01*
X113156419Y-59057217D02*
X113156419Y-58771503D01*
X113156419Y-58771503D02*
X113108800Y-58676265D01*
X113108800Y-58676265D02*
X113061180Y-58628646D01*
X112156419Y-59533408D02*
X113156419Y-59866741D01*
X113156419Y-59866741D02*
X112156419Y-60200074D01*
X112156419Y-60438170D02*
X112156419Y-61057217D01*
X112156419Y-61057217D02*
X112537371Y-60723884D01*
X112537371Y-60723884D02*
X112537371Y-60866741D01*
X112537371Y-60866741D02*
X112584990Y-60961979D01*
X112584990Y-60961979D02*
X112632609Y-61009598D01*
X112632609Y-61009598D02*
X112727847Y-61057217D01*
X112727847Y-61057217D02*
X112965942Y-61057217D01*
X112965942Y-61057217D02*
X113061180Y-61009598D01*
X113061180Y-61009598D02*
X113108800Y-60961979D01*
X113108800Y-60961979D02*
X113156419Y-60866741D01*
X113156419Y-60866741D02*
X113156419Y-60581027D01*
X113156419Y-60581027D02*
X113108800Y-60485789D01*
X113108800Y-60485789D02*
X113061180Y-60438170D01*
X86835752Y-147290455D02*
X87502419Y-147290455D01*
X86454800Y-147052360D02*
X87169085Y-146814265D01*
X87169085Y-146814265D02*
X87169085Y-147433312D01*
X86835752Y-148242836D02*
X87502419Y-148242836D01*
X86454800Y-148004741D02*
X87169085Y-147766646D01*
X87169085Y-147766646D02*
X87169085Y-148385693D01*
X87835752Y-149766646D02*
X86407180Y-149766646D01*
X86835752Y-151671408D02*
X87502419Y-151671408D01*
X86454800Y-151433313D02*
X87169085Y-151195218D01*
X87169085Y-151195218D02*
X87169085Y-151814265D01*
X86502419Y-152099980D02*
X86502419Y-152719027D01*
X86502419Y-152719027D02*
X86883371Y-152385694D01*
X86883371Y-152385694D02*
X86883371Y-152528551D01*
X86883371Y-152528551D02*
X86930990Y-152623789D01*
X86930990Y-152623789D02*
X86978609Y-152671408D01*
X86978609Y-152671408D02*
X87073847Y-152719027D01*
X87073847Y-152719027D02*
X87311942Y-152719027D01*
X87311942Y-152719027D02*
X87407180Y-152671408D01*
X87407180Y-152671408D02*
X87454800Y-152623789D01*
X87454800Y-152623789D02*
X87502419Y-152528551D01*
X87502419Y-152528551D02*
X87502419Y-152242837D01*
X87502419Y-152242837D02*
X87454800Y-152147599D01*
X87454800Y-152147599D02*
X87407180Y-152099980D01*
X84216419Y-58374551D02*
X84216419Y-59041217D01*
X84216419Y-59041217D02*
X85216419Y-58612646D01*
X85549752Y-60422170D02*
X84121180Y-60422170D01*
X84216419Y-63088837D02*
X84216419Y-62898361D01*
X84216419Y-62898361D02*
X84264038Y-62803123D01*
X84264038Y-62803123D02*
X84311657Y-62755504D01*
X84311657Y-62755504D02*
X84454514Y-62660266D01*
X84454514Y-62660266D02*
X84644990Y-62612647D01*
X84644990Y-62612647D02*
X85025942Y-62612647D01*
X85025942Y-62612647D02*
X85121180Y-62660266D01*
X85121180Y-62660266D02*
X85168800Y-62707885D01*
X85168800Y-62707885D02*
X85216419Y-62803123D01*
X85216419Y-62803123D02*
X85216419Y-62993599D01*
X85216419Y-62993599D02*
X85168800Y-63088837D01*
X85168800Y-63088837D02*
X85121180Y-63136456D01*
X85121180Y-63136456D02*
X85025942Y-63184075D01*
X85025942Y-63184075D02*
X84787847Y-63184075D01*
X84787847Y-63184075D02*
X84692609Y-63136456D01*
X84692609Y-63136456D02*
X84644990Y-63088837D01*
X84644990Y-63088837D02*
X84597371Y-62993599D01*
X84597371Y-62993599D02*
X84597371Y-62803123D01*
X84597371Y-62803123D02*
X84644990Y-62707885D01*
X84644990Y-62707885D02*
X84692609Y-62660266D01*
X84692609Y-62660266D02*
X84787847Y-62612647D01*
X109362419Y-147338074D02*
X109362419Y-146861884D01*
X109362419Y-146861884D02*
X109838609Y-146814265D01*
X109838609Y-146814265D02*
X109790990Y-146861884D01*
X109790990Y-146861884D02*
X109743371Y-146957122D01*
X109743371Y-146957122D02*
X109743371Y-147195217D01*
X109743371Y-147195217D02*
X109790990Y-147290455D01*
X109790990Y-147290455D02*
X109838609Y-147338074D01*
X109838609Y-147338074D02*
X109933847Y-147385693D01*
X109933847Y-147385693D02*
X110171942Y-147385693D01*
X110171942Y-147385693D02*
X110267180Y-147338074D01*
X110267180Y-147338074D02*
X110314800Y-147290455D01*
X110314800Y-147290455D02*
X110362419Y-147195217D01*
X110362419Y-147195217D02*
X110362419Y-146957122D01*
X110362419Y-146957122D02*
X110314800Y-146861884D01*
X110314800Y-146861884D02*
X110267180Y-146814265D01*
X109362419Y-147719027D02*
X109362419Y-148385693D01*
X109362419Y-148385693D02*
X110362419Y-147957122D01*
X110695752Y-149766646D02*
X109267180Y-149766646D01*
X109362419Y-151719027D02*
X109362419Y-151242837D01*
X109362419Y-151242837D02*
X109838609Y-151195218D01*
X109838609Y-151195218D02*
X109790990Y-151242837D01*
X109790990Y-151242837D02*
X109743371Y-151338075D01*
X109743371Y-151338075D02*
X109743371Y-151576170D01*
X109743371Y-151576170D02*
X109790990Y-151671408D01*
X109790990Y-151671408D02*
X109838609Y-151719027D01*
X109838609Y-151719027D02*
X109933847Y-151766646D01*
X109933847Y-151766646D02*
X110171942Y-151766646D01*
X110171942Y-151766646D02*
X110267180Y-151719027D01*
X110267180Y-151719027D02*
X110314800Y-151671408D01*
X110314800Y-151671408D02*
X110362419Y-151576170D01*
X110362419Y-151576170D02*
X110362419Y-151338075D01*
X110362419Y-151338075D02*
X110314800Y-151242837D01*
X110314800Y-151242837D02*
X110267180Y-151195218D01*
X109790990Y-152338075D02*
X109743371Y-152242837D01*
X109743371Y-152242837D02*
X109695752Y-152195218D01*
X109695752Y-152195218D02*
X109600514Y-152147599D01*
X109600514Y-152147599D02*
X109552895Y-152147599D01*
X109552895Y-152147599D02*
X109457657Y-152195218D01*
X109457657Y-152195218D02*
X109410038Y-152242837D01*
X109410038Y-152242837D02*
X109362419Y-152338075D01*
X109362419Y-152338075D02*
X109362419Y-152528551D01*
X109362419Y-152528551D02*
X109410038Y-152623789D01*
X109410038Y-152623789D02*
X109457657Y-152671408D01*
X109457657Y-152671408D02*
X109552895Y-152719027D01*
X109552895Y-152719027D02*
X109600514Y-152719027D01*
X109600514Y-152719027D02*
X109695752Y-152671408D01*
X109695752Y-152671408D02*
X109743371Y-152623789D01*
X109743371Y-152623789D02*
X109790990Y-152528551D01*
X109790990Y-152528551D02*
X109790990Y-152338075D01*
X109790990Y-152338075D02*
X109838609Y-152242837D01*
X109838609Y-152242837D02*
X109886228Y-152195218D01*
X109886228Y-152195218D02*
X109981466Y-152147599D01*
X109981466Y-152147599D02*
X110171942Y-152147599D01*
X110171942Y-152147599D02*
X110267180Y-152195218D01*
X110267180Y-152195218D02*
X110314800Y-152242837D01*
X110314800Y-152242837D02*
X110362419Y-152338075D01*
X110362419Y-152338075D02*
X110362419Y-152528551D01*
X110362419Y-152528551D02*
X110314800Y-152623789D01*
X110314800Y-152623789D02*
X110267180Y-152671408D01*
X110267180Y-152671408D02*
X110171942Y-152719027D01*
X110171942Y-152719027D02*
X109981466Y-152719027D01*
X109981466Y-152719027D02*
X109886228Y-152671408D01*
X109886228Y-152671408D02*
X109838609Y-152623789D01*
X109838609Y-152623789D02*
X109790990Y-152528551D01*
X64920895Y-91353312D02*
X64920895Y-90896169D01*
X64920895Y-91124741D02*
X64120895Y-91124741D01*
X64120895Y-91124741D02*
X64235180Y-91048550D01*
X64235180Y-91048550D02*
X64311371Y-90972360D01*
X64311371Y-90972360D02*
X64349466Y-90896169D01*
X64120895Y-92077122D02*
X64120895Y-91696170D01*
X64120895Y-91696170D02*
X64501847Y-91658074D01*
X64501847Y-91658074D02*
X64463752Y-91696170D01*
X64463752Y-91696170D02*
X64425657Y-91772360D01*
X64425657Y-91772360D02*
X64425657Y-91962836D01*
X64425657Y-91962836D02*
X64463752Y-92039027D01*
X64463752Y-92039027D02*
X64501847Y-92077122D01*
X64501847Y-92077122D02*
X64578038Y-92115217D01*
X64578038Y-92115217D02*
X64768514Y-92115217D01*
X64768514Y-92115217D02*
X64844704Y-92077122D01*
X64844704Y-92077122D02*
X64882800Y-92039027D01*
X64882800Y-92039027D02*
X64920895Y-91962836D01*
X64920895Y-91962836D02*
X64920895Y-91772360D01*
X64920895Y-91772360D02*
X64882800Y-91696170D01*
X64882800Y-91696170D02*
X64844704Y-91658074D01*
X64120895Y-92610456D02*
X64120895Y-92686646D01*
X64120895Y-92686646D02*
X64158990Y-92762837D01*
X64158990Y-92762837D02*
X64197085Y-92800932D01*
X64197085Y-92800932D02*
X64273276Y-92839027D01*
X64273276Y-92839027D02*
X64425657Y-92877122D01*
X64425657Y-92877122D02*
X64616133Y-92877122D01*
X64616133Y-92877122D02*
X64768514Y-92839027D01*
X64768514Y-92839027D02*
X64844704Y-92800932D01*
X64844704Y-92800932D02*
X64882800Y-92762837D01*
X64882800Y-92762837D02*
X64920895Y-92686646D01*
X64920895Y-92686646D02*
X64920895Y-92610456D01*
X64920895Y-92610456D02*
X64882800Y-92534265D01*
X64882800Y-92534265D02*
X64844704Y-92496170D01*
X64844704Y-92496170D02*
X64768514Y-92458075D01*
X64768514Y-92458075D02*
X64616133Y-92419979D01*
X64616133Y-92419979D02*
X64425657Y-92419979D01*
X64425657Y-92419979D02*
X64273276Y-92458075D01*
X64273276Y-92458075D02*
X64197085Y-92496170D01*
X64197085Y-92496170D02*
X64158990Y-92534265D01*
X64158990Y-92534265D02*
X64120895Y-92610456D01*
X64120895Y-93372361D02*
X64120895Y-93448551D01*
X64120895Y-93448551D02*
X64158990Y-93524742D01*
X64158990Y-93524742D02*
X64197085Y-93562837D01*
X64197085Y-93562837D02*
X64273276Y-93600932D01*
X64273276Y-93600932D02*
X64425657Y-93639027D01*
X64425657Y-93639027D02*
X64616133Y-93639027D01*
X64616133Y-93639027D02*
X64768514Y-93600932D01*
X64768514Y-93600932D02*
X64844704Y-93562837D01*
X64844704Y-93562837D02*
X64882800Y-93524742D01*
X64882800Y-93524742D02*
X64920895Y-93448551D01*
X64920895Y-93448551D02*
X64920895Y-93372361D01*
X64920895Y-93372361D02*
X64882800Y-93296170D01*
X64882800Y-93296170D02*
X64844704Y-93258075D01*
X64844704Y-93258075D02*
X64768514Y-93219980D01*
X64768514Y-93219980D02*
X64616133Y-93181884D01*
X64616133Y-93181884D02*
X64425657Y-93181884D01*
X64425657Y-93181884D02*
X64273276Y-93219980D01*
X64273276Y-93219980D02*
X64197085Y-93258075D01*
X64197085Y-93258075D02*
X64158990Y-93296170D01*
X64158990Y-93296170D02*
X64120895Y-93372361D01*
X64920895Y-94591409D02*
X64387561Y-94591409D01*
X64463752Y-94591409D02*
X64425657Y-94629504D01*
X64425657Y-94629504D02*
X64387561Y-94705694D01*
X64387561Y-94705694D02*
X64387561Y-94819980D01*
X64387561Y-94819980D02*
X64425657Y-94896171D01*
X64425657Y-94896171D02*
X64501847Y-94934266D01*
X64501847Y-94934266D02*
X64920895Y-94934266D01*
X64501847Y-94934266D02*
X64425657Y-94972361D01*
X64425657Y-94972361D02*
X64387561Y-95048552D01*
X64387561Y-95048552D02*
X64387561Y-95162837D01*
X64387561Y-95162837D02*
X64425657Y-95239028D01*
X64425657Y-95239028D02*
X64501847Y-95277123D01*
X64501847Y-95277123D02*
X64920895Y-95277123D01*
X64920895Y-95658076D02*
X64387561Y-95658076D01*
X64120895Y-95658076D02*
X64158990Y-95619980D01*
X64158990Y-95619980D02*
X64197085Y-95658076D01*
X64197085Y-95658076D02*
X64158990Y-95696171D01*
X64158990Y-95696171D02*
X64120895Y-95658076D01*
X64120895Y-95658076D02*
X64197085Y-95658076D01*
X64920895Y-96153313D02*
X64882800Y-96077123D01*
X64882800Y-96077123D02*
X64806609Y-96039028D01*
X64806609Y-96039028D02*
X64120895Y-96039028D01*
X125602419Y-56961693D02*
X125602419Y-56390265D01*
X125602419Y-56675979D02*
X124602419Y-56675979D01*
X124602419Y-56675979D02*
X124745276Y-56580741D01*
X124745276Y-56580741D02*
X124840514Y-56485503D01*
X124840514Y-56485503D02*
X124888133Y-56390265D01*
X124602419Y-57580741D02*
X124602419Y-57675979D01*
X124602419Y-57675979D02*
X124650038Y-57771217D01*
X124650038Y-57771217D02*
X124697657Y-57818836D01*
X124697657Y-57818836D02*
X124792895Y-57866455D01*
X124792895Y-57866455D02*
X124983371Y-57914074D01*
X124983371Y-57914074D02*
X125221466Y-57914074D01*
X125221466Y-57914074D02*
X125411942Y-57866455D01*
X125411942Y-57866455D02*
X125507180Y-57818836D01*
X125507180Y-57818836D02*
X125554800Y-57771217D01*
X125554800Y-57771217D02*
X125602419Y-57675979D01*
X125602419Y-57675979D02*
X125602419Y-57580741D01*
X125602419Y-57580741D02*
X125554800Y-57485503D01*
X125554800Y-57485503D02*
X125507180Y-57437884D01*
X125507180Y-57437884D02*
X125411942Y-57390265D01*
X125411942Y-57390265D02*
X125221466Y-57342646D01*
X125221466Y-57342646D02*
X124983371Y-57342646D01*
X124983371Y-57342646D02*
X124792895Y-57390265D01*
X124792895Y-57390265D02*
X124697657Y-57437884D01*
X124697657Y-57437884D02*
X124650038Y-57485503D01*
X124650038Y-57485503D02*
X124602419Y-57580741D01*
X124602419Y-58533122D02*
X124602419Y-58628360D01*
X124602419Y-58628360D02*
X124650038Y-58723598D01*
X124650038Y-58723598D02*
X124697657Y-58771217D01*
X124697657Y-58771217D02*
X124792895Y-58818836D01*
X124792895Y-58818836D02*
X124983371Y-58866455D01*
X124983371Y-58866455D02*
X125221466Y-58866455D01*
X125221466Y-58866455D02*
X125411942Y-58818836D01*
X125411942Y-58818836D02*
X125507180Y-58771217D01*
X125507180Y-58771217D02*
X125554800Y-58723598D01*
X125554800Y-58723598D02*
X125602419Y-58628360D01*
X125602419Y-58628360D02*
X125602419Y-58533122D01*
X125602419Y-58533122D02*
X125554800Y-58437884D01*
X125554800Y-58437884D02*
X125507180Y-58390265D01*
X125507180Y-58390265D02*
X125411942Y-58342646D01*
X125411942Y-58342646D02*
X125221466Y-58295027D01*
X125221466Y-58295027D02*
X124983371Y-58295027D01*
X124983371Y-58295027D02*
X124792895Y-58342646D01*
X124792895Y-58342646D02*
X124697657Y-58390265D01*
X124697657Y-58390265D02*
X124650038Y-58437884D01*
X124650038Y-58437884D02*
X124602419Y-58533122D01*
X125935752Y-60295027D02*
X124507180Y-60295027D01*
X125602419Y-61818837D02*
X125602419Y-62009313D01*
X125602419Y-62009313D02*
X125554800Y-62104551D01*
X125554800Y-62104551D02*
X125507180Y-62152170D01*
X125507180Y-62152170D02*
X125364323Y-62247408D01*
X125364323Y-62247408D02*
X125173847Y-62295027D01*
X125173847Y-62295027D02*
X124792895Y-62295027D01*
X124792895Y-62295027D02*
X124697657Y-62247408D01*
X124697657Y-62247408D02*
X124650038Y-62199789D01*
X124650038Y-62199789D02*
X124602419Y-62104551D01*
X124602419Y-62104551D02*
X124602419Y-61914075D01*
X124602419Y-61914075D02*
X124650038Y-61818837D01*
X124650038Y-61818837D02*
X124697657Y-61771218D01*
X124697657Y-61771218D02*
X124792895Y-61723599D01*
X124792895Y-61723599D02*
X125030990Y-61723599D01*
X125030990Y-61723599D02*
X125126228Y-61771218D01*
X125126228Y-61771218D02*
X125173847Y-61818837D01*
X125173847Y-61818837D02*
X125221466Y-61914075D01*
X125221466Y-61914075D02*
X125221466Y-62104551D01*
X125221466Y-62104551D02*
X125173847Y-62199789D01*
X125173847Y-62199789D02*
X125126228Y-62247408D01*
X125126228Y-62247408D02*
X125030990Y-62295027D01*
X125602419Y-62771218D02*
X125602419Y-62961694D01*
X125602419Y-62961694D02*
X125554800Y-63056932D01*
X125554800Y-63056932D02*
X125507180Y-63104551D01*
X125507180Y-63104551D02*
X125364323Y-63199789D01*
X125364323Y-63199789D02*
X125173847Y-63247408D01*
X125173847Y-63247408D02*
X124792895Y-63247408D01*
X124792895Y-63247408D02*
X124697657Y-63199789D01*
X124697657Y-63199789D02*
X124650038Y-63152170D01*
X124650038Y-63152170D02*
X124602419Y-63056932D01*
X124602419Y-63056932D02*
X124602419Y-62866456D01*
X124602419Y-62866456D02*
X124650038Y-62771218D01*
X124650038Y-62771218D02*
X124697657Y-62723599D01*
X124697657Y-62723599D02*
X124792895Y-62675980D01*
X124792895Y-62675980D02*
X125030990Y-62675980D01*
X125030990Y-62675980D02*
X125126228Y-62723599D01*
X125126228Y-62723599D02*
X125173847Y-62771218D01*
X125173847Y-62771218D02*
X125221466Y-62866456D01*
X125221466Y-62866456D02*
X125221466Y-63056932D01*
X125221466Y-63056932D02*
X125173847Y-63152170D01*
X125173847Y-63152170D02*
X125126228Y-63199789D01*
X125126228Y-63199789D02*
X125030990Y-63247408D01*
X84295752Y-147290455D02*
X84962419Y-147290455D01*
X83914800Y-147052360D02*
X84629085Y-146814265D01*
X84629085Y-146814265D02*
X84629085Y-147433312D01*
X84962419Y-148338074D02*
X84962419Y-147766646D01*
X84962419Y-148052360D02*
X83962419Y-148052360D01*
X83962419Y-148052360D02*
X84105276Y-147957122D01*
X84105276Y-147957122D02*
X84200514Y-147861884D01*
X84200514Y-147861884D02*
X84248133Y-147766646D01*
X85295752Y-149766646D02*
X83867180Y-149766646D01*
X83962419Y-151147599D02*
X83962419Y-151766646D01*
X83962419Y-151766646D02*
X84343371Y-151433313D01*
X84343371Y-151433313D02*
X84343371Y-151576170D01*
X84343371Y-151576170D02*
X84390990Y-151671408D01*
X84390990Y-151671408D02*
X84438609Y-151719027D01*
X84438609Y-151719027D02*
X84533847Y-151766646D01*
X84533847Y-151766646D02*
X84771942Y-151766646D01*
X84771942Y-151766646D02*
X84867180Y-151719027D01*
X84867180Y-151719027D02*
X84914800Y-151671408D01*
X84914800Y-151671408D02*
X84962419Y-151576170D01*
X84962419Y-151576170D02*
X84962419Y-151290456D01*
X84962419Y-151290456D02*
X84914800Y-151195218D01*
X84914800Y-151195218D02*
X84867180Y-151147599D01*
X84962419Y-152242837D02*
X84962419Y-152433313D01*
X84962419Y-152433313D02*
X84914800Y-152528551D01*
X84914800Y-152528551D02*
X84867180Y-152576170D01*
X84867180Y-152576170D02*
X84724323Y-152671408D01*
X84724323Y-152671408D02*
X84533847Y-152719027D01*
X84533847Y-152719027D02*
X84152895Y-152719027D01*
X84152895Y-152719027D02*
X84057657Y-152671408D01*
X84057657Y-152671408D02*
X84010038Y-152623789D01*
X84010038Y-152623789D02*
X83962419Y-152528551D01*
X83962419Y-152528551D02*
X83962419Y-152338075D01*
X83962419Y-152338075D02*
X84010038Y-152242837D01*
X84010038Y-152242837D02*
X84057657Y-152195218D01*
X84057657Y-152195218D02*
X84152895Y-152147599D01*
X84152895Y-152147599D02*
X84390990Y-152147599D01*
X84390990Y-152147599D02*
X84486228Y-152195218D01*
X84486228Y-152195218D02*
X84533847Y-152242837D01*
X84533847Y-152242837D02*
X84581466Y-152338075D01*
X84581466Y-152338075D02*
X84581466Y-152528551D01*
X84581466Y-152528551D02*
X84533847Y-152623789D01*
X84533847Y-152623789D02*
X84486228Y-152671408D01*
X84486228Y-152671408D02*
X84390990Y-152719027D01*
X77342419Y-57977693D02*
X77342419Y-57406265D01*
X77342419Y-57691979D02*
X76342419Y-57691979D01*
X76342419Y-57691979D02*
X76485276Y-57596741D01*
X76485276Y-57596741D02*
X76580514Y-57501503D01*
X76580514Y-57501503D02*
X76628133Y-57406265D01*
X76675752Y-58834836D02*
X77342419Y-58834836D01*
X76294800Y-58596741D02*
X77009085Y-58358646D01*
X77009085Y-58358646D02*
X77009085Y-58977693D01*
X77675752Y-60358646D02*
X76247180Y-60358646D01*
X77342419Y-62358646D02*
X77342419Y-61787218D01*
X77342419Y-62072932D02*
X76342419Y-62072932D01*
X76342419Y-62072932D02*
X76485276Y-61977694D01*
X76485276Y-61977694D02*
X76580514Y-61882456D01*
X76580514Y-61882456D02*
X76628133Y-61787218D01*
X76342419Y-62691980D02*
X76342419Y-63311027D01*
X76342419Y-63311027D02*
X76723371Y-62977694D01*
X76723371Y-62977694D02*
X76723371Y-63120551D01*
X76723371Y-63120551D02*
X76770990Y-63215789D01*
X76770990Y-63215789D02*
X76818609Y-63263408D01*
X76818609Y-63263408D02*
X76913847Y-63311027D01*
X76913847Y-63311027D02*
X77151942Y-63311027D01*
X77151942Y-63311027D02*
X77247180Y-63263408D01*
X77247180Y-63263408D02*
X77294800Y-63215789D01*
X77294800Y-63215789D02*
X77342419Y-63120551D01*
X77342419Y-63120551D02*
X77342419Y-62834837D01*
X77342419Y-62834837D02*
X77294800Y-62739599D01*
X77294800Y-62739599D02*
X77247180Y-62691980D01*
X122062419Y-148544646D02*
X122062419Y-149163693D01*
X122062419Y-149163693D02*
X122443371Y-148830360D01*
X122443371Y-148830360D02*
X122443371Y-148973217D01*
X122443371Y-148973217D02*
X122490990Y-149068455D01*
X122490990Y-149068455D02*
X122538609Y-149116074D01*
X122538609Y-149116074D02*
X122633847Y-149163693D01*
X122633847Y-149163693D02*
X122871942Y-149163693D01*
X122871942Y-149163693D02*
X122967180Y-149116074D01*
X122967180Y-149116074D02*
X123014800Y-149068455D01*
X123014800Y-149068455D02*
X123062419Y-148973217D01*
X123062419Y-148973217D02*
X123062419Y-148687503D01*
X123062419Y-148687503D02*
X123014800Y-148592265D01*
X123014800Y-148592265D02*
X122967180Y-148544646D01*
X122062419Y-149449408D02*
X123062419Y-149782741D01*
X123062419Y-149782741D02*
X122062419Y-150116074D01*
X122062419Y-150354170D02*
X122062419Y-150973217D01*
X122062419Y-150973217D02*
X122443371Y-150639884D01*
X122443371Y-150639884D02*
X122443371Y-150782741D01*
X122443371Y-150782741D02*
X122490990Y-150877979D01*
X122490990Y-150877979D02*
X122538609Y-150925598D01*
X122538609Y-150925598D02*
X122633847Y-150973217D01*
X122633847Y-150973217D02*
X122871942Y-150973217D01*
X122871942Y-150973217D02*
X122967180Y-150925598D01*
X122967180Y-150925598D02*
X123014800Y-150877979D01*
X123014800Y-150877979D02*
X123062419Y-150782741D01*
X123062419Y-150782741D02*
X123062419Y-150497027D01*
X123062419Y-150497027D02*
X123014800Y-150401789D01*
X123014800Y-150401789D02*
X122967180Y-150354170D01*
X132524038Y-59501693D02*
X132476419Y-59406455D01*
X132476419Y-59406455D02*
X132476419Y-59263598D01*
X132476419Y-59263598D02*
X132524038Y-59120741D01*
X132524038Y-59120741D02*
X132619276Y-59025503D01*
X132619276Y-59025503D02*
X132714514Y-58977884D01*
X132714514Y-58977884D02*
X132904990Y-58930265D01*
X132904990Y-58930265D02*
X133047847Y-58930265D01*
X133047847Y-58930265D02*
X133238323Y-58977884D01*
X133238323Y-58977884D02*
X133333561Y-59025503D01*
X133333561Y-59025503D02*
X133428800Y-59120741D01*
X133428800Y-59120741D02*
X133476419Y-59263598D01*
X133476419Y-59263598D02*
X133476419Y-59358836D01*
X133476419Y-59358836D02*
X133428800Y-59501693D01*
X133428800Y-59501693D02*
X133381180Y-59549312D01*
X133381180Y-59549312D02*
X133047847Y-59549312D01*
X133047847Y-59549312D02*
X133047847Y-59358836D01*
X133476419Y-59977884D02*
X132476419Y-59977884D01*
X132476419Y-59977884D02*
X133476419Y-60549312D01*
X133476419Y-60549312D02*
X132476419Y-60549312D01*
X133476419Y-61025503D02*
X132476419Y-61025503D01*
X132476419Y-61025503D02*
X132476419Y-61263598D01*
X132476419Y-61263598D02*
X132524038Y-61406455D01*
X132524038Y-61406455D02*
X132619276Y-61501693D01*
X132619276Y-61501693D02*
X132714514Y-61549312D01*
X132714514Y-61549312D02*
X132904990Y-61596931D01*
X132904990Y-61596931D02*
X133047847Y-61596931D01*
X133047847Y-61596931D02*
X133238323Y-61549312D01*
X133238323Y-61549312D02*
X133333561Y-61501693D01*
X133333561Y-61501693D02*
X133428800Y-61406455D01*
X133428800Y-61406455D02*
X133476419Y-61263598D01*
X133476419Y-61263598D02*
X133476419Y-61025503D01*
X132222419Y-146766646D02*
X132222419Y-147433312D01*
X132222419Y-147433312D02*
X133222419Y-147004741D01*
X133222419Y-147861884D02*
X133222419Y-148052360D01*
X133222419Y-148052360D02*
X133174800Y-148147598D01*
X133174800Y-148147598D02*
X133127180Y-148195217D01*
X133127180Y-148195217D02*
X132984323Y-148290455D01*
X132984323Y-148290455D02*
X132793847Y-148338074D01*
X132793847Y-148338074D02*
X132412895Y-148338074D01*
X132412895Y-148338074D02*
X132317657Y-148290455D01*
X132317657Y-148290455D02*
X132270038Y-148242836D01*
X132270038Y-148242836D02*
X132222419Y-148147598D01*
X132222419Y-148147598D02*
X132222419Y-147957122D01*
X132222419Y-147957122D02*
X132270038Y-147861884D01*
X132270038Y-147861884D02*
X132317657Y-147814265D01*
X132317657Y-147814265D02*
X132412895Y-147766646D01*
X132412895Y-147766646D02*
X132650990Y-147766646D01*
X132650990Y-147766646D02*
X132746228Y-147814265D01*
X132746228Y-147814265D02*
X132793847Y-147861884D01*
X132793847Y-147861884D02*
X132841466Y-147957122D01*
X132841466Y-147957122D02*
X132841466Y-148147598D01*
X132841466Y-148147598D02*
X132793847Y-148242836D01*
X132793847Y-148242836D02*
X132746228Y-148290455D01*
X132746228Y-148290455D02*
X132650990Y-148338074D01*
X133555752Y-149766646D02*
X132127180Y-149766646D01*
X132222419Y-151147599D02*
X132222419Y-151814265D01*
X132222419Y-151814265D02*
X133222419Y-151385694D01*
X132650990Y-152338075D02*
X132603371Y-152242837D01*
X132603371Y-152242837D02*
X132555752Y-152195218D01*
X132555752Y-152195218D02*
X132460514Y-152147599D01*
X132460514Y-152147599D02*
X132412895Y-152147599D01*
X132412895Y-152147599D02*
X132317657Y-152195218D01*
X132317657Y-152195218D02*
X132270038Y-152242837D01*
X132270038Y-152242837D02*
X132222419Y-152338075D01*
X132222419Y-152338075D02*
X132222419Y-152528551D01*
X132222419Y-152528551D02*
X132270038Y-152623789D01*
X132270038Y-152623789D02*
X132317657Y-152671408D01*
X132317657Y-152671408D02*
X132412895Y-152719027D01*
X132412895Y-152719027D02*
X132460514Y-152719027D01*
X132460514Y-152719027D02*
X132555752Y-152671408D01*
X132555752Y-152671408D02*
X132603371Y-152623789D01*
X132603371Y-152623789D02*
X132650990Y-152528551D01*
X132650990Y-152528551D02*
X132650990Y-152338075D01*
X132650990Y-152338075D02*
X132698609Y-152242837D01*
X132698609Y-152242837D02*
X132746228Y-152195218D01*
X132746228Y-152195218D02*
X132841466Y-152147599D01*
X132841466Y-152147599D02*
X133031942Y-152147599D01*
X133031942Y-152147599D02*
X133127180Y-152195218D01*
X133127180Y-152195218D02*
X133174800Y-152242837D01*
X133174800Y-152242837D02*
X133222419Y-152338075D01*
X133222419Y-152338075D02*
X133222419Y-152528551D01*
X133222419Y-152528551D02*
X133174800Y-152623789D01*
X133174800Y-152623789D02*
X133127180Y-152671408D01*
X133127180Y-152671408D02*
X133031942Y-152719027D01*
X133031942Y-152719027D02*
X132841466Y-152719027D01*
X132841466Y-152719027D02*
X132746228Y-152671408D01*
X132746228Y-152671408D02*
X132698609Y-152623789D01*
X132698609Y-152623789D02*
X132650990Y-152528551D01*
X101790038Y-148909693D02*
X101742419Y-148814455D01*
X101742419Y-148814455D02*
X101742419Y-148671598D01*
X101742419Y-148671598D02*
X101790038Y-148528741D01*
X101790038Y-148528741D02*
X101885276Y-148433503D01*
X101885276Y-148433503D02*
X101980514Y-148385884D01*
X101980514Y-148385884D02*
X102170990Y-148338265D01*
X102170990Y-148338265D02*
X102313847Y-148338265D01*
X102313847Y-148338265D02*
X102504323Y-148385884D01*
X102504323Y-148385884D02*
X102599561Y-148433503D01*
X102599561Y-148433503D02*
X102694800Y-148528741D01*
X102694800Y-148528741D02*
X102742419Y-148671598D01*
X102742419Y-148671598D02*
X102742419Y-148766836D01*
X102742419Y-148766836D02*
X102694800Y-148909693D01*
X102694800Y-148909693D02*
X102647180Y-148957312D01*
X102647180Y-148957312D02*
X102313847Y-148957312D01*
X102313847Y-148957312D02*
X102313847Y-148766836D01*
X102742419Y-149385884D02*
X101742419Y-149385884D01*
X101742419Y-149385884D02*
X102742419Y-149957312D01*
X102742419Y-149957312D02*
X101742419Y-149957312D01*
X102742419Y-150433503D02*
X101742419Y-150433503D01*
X101742419Y-150433503D02*
X101742419Y-150671598D01*
X101742419Y-150671598D02*
X101790038Y-150814455D01*
X101790038Y-150814455D02*
X101885276Y-150909693D01*
X101885276Y-150909693D02*
X101980514Y-150957312D01*
X101980514Y-150957312D02*
X102170990Y-151004931D01*
X102170990Y-151004931D02*
X102313847Y-151004931D01*
X102313847Y-151004931D02*
X102504323Y-150957312D01*
X102504323Y-150957312D02*
X102599561Y-150909693D01*
X102599561Y-150909693D02*
X102694800Y-150814455D01*
X102694800Y-150814455D02*
X102742419Y-150671598D01*
X102742419Y-150671598D02*
X102742419Y-150433503D01*
X129682419Y-146766646D02*
X129682419Y-147433312D01*
X129682419Y-147433312D02*
X130682419Y-147004741D01*
X129682419Y-147719027D02*
X129682419Y-148385693D01*
X129682419Y-148385693D02*
X130682419Y-147957122D01*
X131015752Y-149766646D02*
X129587180Y-149766646D01*
X129682419Y-151147599D02*
X129682419Y-151814265D01*
X129682419Y-151814265D02*
X130682419Y-151385694D01*
X130015752Y-152623789D02*
X130682419Y-152623789D01*
X129634800Y-152385694D02*
X130349085Y-152147599D01*
X130349085Y-152147599D02*
X130349085Y-152766646D01*
X130682419Y-56961693D02*
X130682419Y-56390265D01*
X130682419Y-56675979D02*
X129682419Y-56675979D01*
X129682419Y-56675979D02*
X129825276Y-56580741D01*
X129825276Y-56580741D02*
X129920514Y-56485503D01*
X129920514Y-56485503D02*
X129968133Y-56390265D01*
X129682419Y-57580741D02*
X129682419Y-57675979D01*
X129682419Y-57675979D02*
X129730038Y-57771217D01*
X129730038Y-57771217D02*
X129777657Y-57818836D01*
X129777657Y-57818836D02*
X129872895Y-57866455D01*
X129872895Y-57866455D02*
X130063371Y-57914074D01*
X130063371Y-57914074D02*
X130301466Y-57914074D01*
X130301466Y-57914074D02*
X130491942Y-57866455D01*
X130491942Y-57866455D02*
X130587180Y-57818836D01*
X130587180Y-57818836D02*
X130634800Y-57771217D01*
X130634800Y-57771217D02*
X130682419Y-57675979D01*
X130682419Y-57675979D02*
X130682419Y-57580741D01*
X130682419Y-57580741D02*
X130634800Y-57485503D01*
X130634800Y-57485503D02*
X130587180Y-57437884D01*
X130587180Y-57437884D02*
X130491942Y-57390265D01*
X130491942Y-57390265D02*
X130301466Y-57342646D01*
X130301466Y-57342646D02*
X130063371Y-57342646D01*
X130063371Y-57342646D02*
X129872895Y-57390265D01*
X129872895Y-57390265D02*
X129777657Y-57437884D01*
X129777657Y-57437884D02*
X129730038Y-57485503D01*
X129730038Y-57485503D02*
X129682419Y-57580741D01*
X129682419Y-58771217D02*
X129682419Y-58580741D01*
X129682419Y-58580741D02*
X129730038Y-58485503D01*
X129730038Y-58485503D02*
X129777657Y-58437884D01*
X129777657Y-58437884D02*
X129920514Y-58342646D01*
X129920514Y-58342646D02*
X130110990Y-58295027D01*
X130110990Y-58295027D02*
X130491942Y-58295027D01*
X130491942Y-58295027D02*
X130587180Y-58342646D01*
X130587180Y-58342646D02*
X130634800Y-58390265D01*
X130634800Y-58390265D02*
X130682419Y-58485503D01*
X130682419Y-58485503D02*
X130682419Y-58675979D01*
X130682419Y-58675979D02*
X130634800Y-58771217D01*
X130634800Y-58771217D02*
X130587180Y-58818836D01*
X130587180Y-58818836D02*
X130491942Y-58866455D01*
X130491942Y-58866455D02*
X130253847Y-58866455D01*
X130253847Y-58866455D02*
X130158609Y-58818836D01*
X130158609Y-58818836D02*
X130110990Y-58771217D01*
X130110990Y-58771217D02*
X130063371Y-58675979D01*
X130063371Y-58675979D02*
X130063371Y-58485503D01*
X130063371Y-58485503D02*
X130110990Y-58390265D01*
X130110990Y-58390265D02*
X130158609Y-58342646D01*
X130158609Y-58342646D02*
X130253847Y-58295027D01*
X131015752Y-60295027D02*
X129587180Y-60295027D01*
X130682419Y-61818837D02*
X130682419Y-62009313D01*
X130682419Y-62009313D02*
X130634800Y-62104551D01*
X130634800Y-62104551D02*
X130587180Y-62152170D01*
X130587180Y-62152170D02*
X130444323Y-62247408D01*
X130444323Y-62247408D02*
X130253847Y-62295027D01*
X130253847Y-62295027D02*
X129872895Y-62295027D01*
X129872895Y-62295027D02*
X129777657Y-62247408D01*
X129777657Y-62247408D02*
X129730038Y-62199789D01*
X129730038Y-62199789D02*
X129682419Y-62104551D01*
X129682419Y-62104551D02*
X129682419Y-61914075D01*
X129682419Y-61914075D02*
X129730038Y-61818837D01*
X129730038Y-61818837D02*
X129777657Y-61771218D01*
X129777657Y-61771218D02*
X129872895Y-61723599D01*
X129872895Y-61723599D02*
X130110990Y-61723599D01*
X130110990Y-61723599D02*
X130206228Y-61771218D01*
X130206228Y-61771218D02*
X130253847Y-61818837D01*
X130253847Y-61818837D02*
X130301466Y-61914075D01*
X130301466Y-61914075D02*
X130301466Y-62104551D01*
X130301466Y-62104551D02*
X130253847Y-62199789D01*
X130253847Y-62199789D02*
X130206228Y-62247408D01*
X130206228Y-62247408D02*
X130110990Y-62295027D01*
X129682419Y-62628361D02*
X129682419Y-63295027D01*
X129682419Y-63295027D02*
X130682419Y-62866456D01*
X127142419Y-146766646D02*
X127142419Y-147433312D01*
X127142419Y-147433312D02*
X128142419Y-147004741D01*
X127142419Y-148242836D02*
X127142419Y-148052360D01*
X127142419Y-148052360D02*
X127190038Y-147957122D01*
X127190038Y-147957122D02*
X127237657Y-147909503D01*
X127237657Y-147909503D02*
X127380514Y-147814265D01*
X127380514Y-147814265D02*
X127570990Y-147766646D01*
X127570990Y-147766646D02*
X127951942Y-147766646D01*
X127951942Y-147766646D02*
X128047180Y-147814265D01*
X128047180Y-147814265D02*
X128094800Y-147861884D01*
X128094800Y-147861884D02*
X128142419Y-147957122D01*
X128142419Y-147957122D02*
X128142419Y-148147598D01*
X128142419Y-148147598D02*
X128094800Y-148242836D01*
X128094800Y-148242836D02*
X128047180Y-148290455D01*
X128047180Y-148290455D02*
X127951942Y-148338074D01*
X127951942Y-148338074D02*
X127713847Y-148338074D01*
X127713847Y-148338074D02*
X127618609Y-148290455D01*
X127618609Y-148290455D02*
X127570990Y-148242836D01*
X127570990Y-148242836D02*
X127523371Y-148147598D01*
X127523371Y-148147598D02*
X127523371Y-147957122D01*
X127523371Y-147957122D02*
X127570990Y-147861884D01*
X127570990Y-147861884D02*
X127618609Y-147814265D01*
X127618609Y-147814265D02*
X127713847Y-147766646D01*
X128475752Y-149766646D02*
X127047180Y-149766646D01*
X127142419Y-151147599D02*
X127142419Y-151814265D01*
X127142419Y-151814265D02*
X128142419Y-151385694D01*
X127142419Y-152671408D02*
X127142419Y-152195218D01*
X127142419Y-152195218D02*
X127618609Y-152147599D01*
X127618609Y-152147599D02*
X127570990Y-152195218D01*
X127570990Y-152195218D02*
X127523371Y-152290456D01*
X127523371Y-152290456D02*
X127523371Y-152528551D01*
X127523371Y-152528551D02*
X127570990Y-152623789D01*
X127570990Y-152623789D02*
X127618609Y-152671408D01*
X127618609Y-152671408D02*
X127713847Y-152719027D01*
X127713847Y-152719027D02*
X127951942Y-152719027D01*
X127951942Y-152719027D02*
X128047180Y-152671408D01*
X128047180Y-152671408D02*
X128094800Y-152623789D01*
X128094800Y-152623789D02*
X128142419Y-152528551D01*
X128142419Y-152528551D02*
X128142419Y-152290456D01*
X128142419Y-152290456D02*
X128094800Y-152195218D01*
X128094800Y-152195218D02*
X128047180Y-152147599D01*
X99202419Y-148544646D02*
X99202419Y-149163693D01*
X99202419Y-149163693D02*
X99583371Y-148830360D01*
X99583371Y-148830360D02*
X99583371Y-148973217D01*
X99583371Y-148973217D02*
X99630990Y-149068455D01*
X99630990Y-149068455D02*
X99678609Y-149116074D01*
X99678609Y-149116074D02*
X99773847Y-149163693D01*
X99773847Y-149163693D02*
X100011942Y-149163693D01*
X100011942Y-149163693D02*
X100107180Y-149116074D01*
X100107180Y-149116074D02*
X100154800Y-149068455D01*
X100154800Y-149068455D02*
X100202419Y-148973217D01*
X100202419Y-148973217D02*
X100202419Y-148687503D01*
X100202419Y-148687503D02*
X100154800Y-148592265D01*
X100154800Y-148592265D02*
X100107180Y-148544646D01*
X99202419Y-149449408D02*
X100202419Y-149782741D01*
X100202419Y-149782741D02*
X99202419Y-150116074D01*
X99202419Y-150354170D02*
X99202419Y-150973217D01*
X99202419Y-150973217D02*
X99583371Y-150639884D01*
X99583371Y-150639884D02*
X99583371Y-150782741D01*
X99583371Y-150782741D02*
X99630990Y-150877979D01*
X99630990Y-150877979D02*
X99678609Y-150925598D01*
X99678609Y-150925598D02*
X99773847Y-150973217D01*
X99773847Y-150973217D02*
X100011942Y-150973217D01*
X100011942Y-150973217D02*
X100107180Y-150925598D01*
X100107180Y-150925598D02*
X100154800Y-150877979D01*
X100154800Y-150877979D02*
X100202419Y-150782741D01*
X100202419Y-150782741D02*
X100202419Y-150497027D01*
X100202419Y-150497027D02*
X100154800Y-150401789D01*
X100154800Y-150401789D02*
X100107180Y-150354170D01*
M02*
