M48
; DRILL file {KiCad 9.0.2} date 2026-08-13T14:30:08+0900
; FORMAT={-:-/ absolute / inch / decimal}
; #@! TF.CreationDate,2026-08-13T14:30:08+09:00
; #@! TF.GenerationSoftware,Kicad,Pcbnew,9.0.2
; #@! TF.FileFunction,Plated,1,2,PTH
FMAT,2
INCH
; #@! TA.AperFunction,Plated,PTH,ViaDrill
T1C0.0118
; #@! TA.AperFunction,Plated,PTH,ViaDrill
T2C0.0315
; #@! TA.AperFunction,Plated,PTH,ComponentDrill
T3C0.0394
; #@! TA.AperFunction,Plated,PTH,ComponentDrill
T4C0.0441
; #@! TA.AperFunction,Plated,PTH,ComponentDrill
T5C0.0512
; #@! TA.AperFunction,Plated,PTH,ComponentDrill
T6C0.0563
%
G90
G05
T1
X3.43Y-4.65
X3.61Y-4.65
X3.73Y-5.84
X3.78Y-4.67
X4.07Y-3.64
X4.17Y-3.61
X5.54Y-2.33
X5.54Y-2.51
X5.68Y-5.97
X5.74Y-2.33
X5.74Y-2.51
X5.82Y-5.81
X5.82Y-5.97
X6.15Y-2.73
X6.2Y-5.58
T2
X6.19Y-5.1
T3
X2.55Y-2.78
X2.73Y-3.06
X2.73Y-3.16
X2.73Y-3.33
X2.73Y-3.43
X2.73Y-4.83
X2.73Y-4.93
X2.73Y-5.1
X2.73Y-5.2
X2.83Y-3.06
X2.83Y-3.16
X2.83Y-3.33
X2.83Y-3.43
X2.83Y-4.83
X2.83Y-4.93
X2.83Y-5.1
X2.83Y-5.2
X2.93Y-3.06
X2.93Y-3.16
X2.93Y-3.33
X2.93Y-3.43
X2.93Y-4.83
X2.93Y-4.93
X2.93Y-5.1
X2.93Y-5.2
X3.029Y-2.5715
X3.029Y-2.6715
X3.03Y-3.06
X3.03Y-3.16
X3.03Y-3.33
X3.03Y-3.43
X3.03Y-4.83
X3.03Y-4.93
X3.03Y-5.1
X3.03Y-5.2
X3.03Y-5.58
X3.03Y-5.68
X3.129Y-2.5715
X3.129Y-2.6715
X3.13Y-3.06
X3.13Y-3.16
X3.13Y-3.33
X3.13Y-3.43
X3.13Y-4.83
X3.13Y-4.93
X3.13Y-5.1
X3.13Y-5.2
X3.13Y-5.58
X3.13Y-5.68
X3.229Y-2.5715
X3.229Y-2.6715
X3.23Y-3.06
X3.23Y-3.16
X3.23Y-3.33
X3.23Y-3.43
X3.23Y-4.83
X3.23Y-4.93
X3.23Y-5.1
X3.23Y-5.2
X3.23Y-5.58
X3.23Y-5.68
X3.329Y-2.5715
X3.329Y-2.6715
X3.33Y-3.06
X3.33Y-3.16
X3.33Y-3.33
X3.33Y-3.43
X3.33Y-4.83
X3.33Y-4.93
X3.33Y-5.1
X3.33Y-5.2
X3.33Y-5.58
X3.33Y-5.68
X3.429Y-2.5715
X3.429Y-2.6715
X3.43Y-3.06
X3.43Y-3.16
X3.43Y-3.33
X3.43Y-3.43
X3.43Y-4.83
X3.43Y-4.93
X3.43Y-5.1
X3.43Y-5.2
X3.43Y-5.58
X3.43Y-5.68
X3.529Y-2.5715
X3.529Y-2.6715
X3.53Y-3.06
X3.53Y-3.16
X3.53Y-3.33
X3.53Y-3.43
X3.53Y-4.83
X3.53Y-4.93
X3.53Y-5.1
X3.53Y-5.2
X3.53Y-5.58
X3.53Y-5.68
X3.63Y-3.06
X3.63Y-3.16
X3.63Y-3.33
X3.63Y-3.43
X3.63Y-4.83
X3.63Y-4.93
X3.63Y-5.1
X3.63Y-5.2
X3.73Y-3.06
X3.73Y-3.16
X3.73Y-3.33
X3.73Y-3.43
X3.73Y-4.83
X3.73Y-4.93
X3.73Y-5.1
X3.73Y-5.2
X3.83Y-3.06
X3.83Y-3.16
X3.83Y-3.33
X3.83Y-3.43
X3.83Y-4.83
X3.83Y-4.93
X3.83Y-5.1
X3.83Y-5.2
X3.929Y-2.5715
X3.929Y-2.6715
X3.93Y-3.06
X3.93Y-3.16
X3.93Y-3.33
X3.93Y-3.43
X3.93Y-4.83
X3.93Y-4.93
X3.93Y-5.1
X3.93Y-5.2
X3.93Y-5.5785
X3.93Y-5.6785
X4.029Y-2.5715
X4.029Y-2.6715
X4.03Y-3.06
X4.03Y-3.16
X4.03Y-3.33
X4.03Y-3.43
X4.03Y-4.83
X4.03Y-4.93
X4.03Y-5.1
X4.03Y-5.2
X4.03Y-5.5785
X4.03Y-5.6785
X4.129Y-2.5715
X4.129Y-2.6715
X4.13Y-3.06
X4.13Y-3.16
X4.13Y-3.33
X4.13Y-3.43
X4.13Y-4.83
X4.13Y-4.93
X4.13Y-5.1
X4.13Y-5.2
X4.13Y-5.5785
X4.13Y-5.6785
X4.229Y-2.5715
X4.229Y-2.6715
X4.23Y-3.06
X4.23Y-3.16
X4.23Y-3.33
X4.23Y-3.43
X4.23Y-4.83
X4.23Y-4.93
X4.23Y-5.1
X4.23Y-5.2
X4.23Y-5.5785
X4.23Y-5.6785
X4.329Y-2.5715
X4.329Y-2.6715
X4.33Y-3.06
X4.33Y-3.16
X4.33Y-3.33
X4.33Y-3.43
X4.33Y-4.83
X4.33Y-4.93
X4.33Y-5.1
X4.33Y-5.2
X4.33Y-5.5785
X4.33Y-5.6785
X4.429Y-2.5715
X4.429Y-2.6715
X4.43Y-3.06
X4.43Y-3.16
X4.43Y-3.33
X4.43Y-3.43
X4.43Y-4.83
X4.43Y-4.93
X4.43Y-5.1
X4.43Y-5.2
X4.43Y-5.5785
X4.43Y-5.6785
X4.53Y-3.06
X4.53Y-3.16
X4.53Y-3.33
X4.53Y-3.43
X4.53Y-4.83
X4.53Y-4.93
X4.53Y-5.1
X4.53Y-5.2
X4.63Y-3.06
X4.63Y-3.16
X4.63Y-3.33
X4.63Y-3.43
X4.63Y-4.83
X4.63Y-4.93
X4.63Y-5.1
X4.63Y-5.2
X4.73Y-3.06
X4.73Y-3.16
X4.73Y-3.33
X4.73Y-3.43
X4.73Y-4.83
X4.73Y-4.93
X4.73Y-5.1
X4.73Y-5.2
X4.829Y-2.5715
X4.829Y-2.6715
X4.83Y-3.06
X4.83Y-3.16
X4.83Y-3.33
X4.83Y-3.43
X4.83Y-4.83
X4.83Y-4.93
X4.83Y-5.1
X4.83Y-5.2
X4.83Y-5.5785
X4.83Y-5.6785
X4.929Y-2.5715
X4.929Y-2.6715
X4.93Y-3.06
X4.93Y-3.16
X4.93Y-3.33
X4.93Y-3.43
X4.93Y-4.83
X4.93Y-4.93
X4.93Y-5.1
X4.93Y-5.2
X4.93Y-5.5785
X4.93Y-5.6785
X5.029Y-2.5715
X5.029Y-2.6715
X5.03Y-3.06
X5.03Y-3.16
X5.03Y-3.33
X5.03Y-3.43
X5.03Y-4.83
X5.03Y-4.93
X5.03Y-5.1
X5.03Y-5.2
X5.03Y-5.5785
X5.03Y-5.6785
X5.129Y-2.5715
X5.129Y-2.6715
X5.13Y-3.06
X5.13Y-3.16
X5.13Y-3.33
X5.13Y-3.43
X5.13Y-4.83
X5.13Y-4.93
X5.13Y-5.1
X5.13Y-5.2
X5.13Y-5.5785
X5.13Y-5.6785
X5.229Y-2.5715
X5.229Y-2.6715
X5.23Y-5.5785
X5.23Y-5.6785
X5.329Y-2.5715
X5.329Y-2.6715
X5.33Y-5.5785
X5.33Y-5.6785
T4
X2.6396Y-4.0591
X2.6396Y-4.2008
T5
X5.7407Y-4.19
X5.7407Y-4.56
X5.7407Y-5.28
X5.743Y-4.925
X5.9966Y-4.19
X5.9966Y-4.56
X5.9966Y-5.28
X5.9989Y-4.925
T6
X2.49Y-3.9598
X2.49Y-4.3
M30
