%TF.GenerationSoftware,KiCad,Pcbnew,9.0.2*%
%TF.CreationDate,2026-08-13T14:29:23+09:00*%
%TF.ProjectId,CQmax10,43516d61-7831-4302-9e6b-696361645f70,rev?*%
%TF.SameCoordinates,Original*%
%TF.FileFunction,Soldermask,Top*%
%TF.FilePolarity,Negative*%
%FSLAX46Y46*%
G04 Gerber Fmt 4.6, Leading zero omitted, Abs format (unit mm)*
G04 Created by KiCad (PCBNEW 9.0.2) date 2026-08-13 14:29:23*
%MOMM*%
%LPD*%
G01*
G04 APERTURE LIST*
G04 Aperture macros list*
%AMRoundRect*
0 Rectangle with rounded corners*
0 $1 Rounding radius*
0 $2 $3 $4 $5 $6 $7 $8 $9 X,Y pos of 4 corners*
0 Add a 4 corners polygon primitive as box body*
4,1,4,$2,$3,$4,$5,$6,$7,$8,$9,$2,$3,0*
0 Add four circle primitives for the rounded corners*
1,1,$1+$1,$2,$3*
1,1,$1+$1,$4,$5*
1,1,$1+$1,$6,$7*
1,1,$1+$1,$8,$9*
0 Add four rect primitives between the rounded corners*
20,1,$1+$1,$2,$3,$4,$5,0*
20,1,$1+$1,$4,$5,$6,$7,0*
20,1,$1+$1,$6,$7,$8,$9,0*
20,1,$1+$1,$8,$9,$2,$3,0*%
G04 Aperture macros list end*
%ADD10C,1.950000*%
%ADD11R,1.700000X1.700000*%
%ADD12R,1.680000X1.680000*%
%ADD13C,1.680000*%
%ADD14C,2.145000*%
%ADD15R,2.500000X2.000000*%
%ADD16R,6.000000X6.000000*%
%ADD17C,1.700000*%
%ADD18RoundRect,0.237500X-0.250000X-0.237500X0.250000X-0.237500X0.250000X0.237500X-0.250000X0.237500X0*%
%ADD19O,1.700000X1.700000*%
%ADD20RoundRect,0.237500X0.250000X0.237500X-0.250000X0.237500X-0.250000X-0.237500X0.250000X-0.237500X0*%
%ADD21RoundRect,0.237500X-0.287500X-0.237500X0.287500X-0.237500X0.287500X0.237500X-0.287500X0.237500X0*%
%ADD22C,3.200000*%
%ADD23RoundRect,0.237500X0.237500X-0.300000X0.237500X0.300000X-0.237500X0.300000X-0.237500X-0.300000X0*%
%ADD24RoundRect,0.237500X-0.300000X-0.237500X0.300000X-0.237500X0.300000X0.237500X-0.300000X0.237500X0*%
G04 APERTURE END LIST*
D10*
%TO.C,S4*%
X152314500Y-106426000D03*
X145814500Y-106426000D03*
%TD*%
%TO.C,S3*%
X152314500Y-115824000D03*
X145814500Y-115824000D03*
%TD*%
%TO.C,S2*%
X152373000Y-125095000D03*
X145873000Y-125095000D03*
%TD*%
%TO.C,S1*%
X152314500Y-134112000D03*
X145814500Y-134112000D03*
%TD*%
D11*
%TO.C,J10*%
X64770000Y-70612000D03*
%TD*%
D12*
%TO.C,J9*%
X67046000Y-103100000D03*
D13*
X67046000Y-106700000D03*
D14*
X63246000Y-100580000D03*
X63246000Y-109220000D03*
%TD*%
D15*
%TO.C,IC1*%
X73565000Y-103124000D03*
X73565000Y-107724000D03*
D16*
X79815000Y-105424000D03*
%TD*%
D11*
%TO.C,J7*%
X69342000Y-125222000D03*
D17*
X69342000Y-122682000D03*
X71882000Y-125222000D03*
X71882000Y-122682000D03*
X74422000Y-125222000D03*
X74422000Y-122682000D03*
X76962000Y-125222000D03*
X76962000Y-122682000D03*
X79502000Y-125222000D03*
X79502000Y-122682000D03*
X82042000Y-125222000D03*
X82042000Y-122682000D03*
X84582000Y-125222000D03*
X84582000Y-122682000D03*
X87122000Y-125222000D03*
X87122000Y-122682000D03*
X89662000Y-125222000D03*
X89662000Y-122682000D03*
X92202000Y-125222000D03*
X92202000Y-122682000D03*
X94742000Y-125222000D03*
X94742000Y-122682000D03*
X97282000Y-125222000D03*
X97282000Y-122682000D03*
X99822000Y-125222000D03*
X99822000Y-122682000D03*
X102362000Y-125222000D03*
X102362000Y-122682000D03*
X104902000Y-125222000D03*
X104902000Y-122682000D03*
X107442000Y-125222000D03*
X107442000Y-122682000D03*
X109982000Y-125222000D03*
X109982000Y-122682000D03*
X112522000Y-125222000D03*
X112522000Y-122682000D03*
X115062000Y-125222000D03*
X115062000Y-122682000D03*
X117602000Y-125222000D03*
X117602000Y-122682000D03*
X120142000Y-125222000D03*
X120142000Y-122682000D03*
X122682000Y-125222000D03*
X122682000Y-122682000D03*
X125222000Y-125222000D03*
X125222000Y-122682000D03*
X127762000Y-125222000D03*
X127762000Y-122682000D03*
X130302000Y-125222000D03*
X130302000Y-122682000D03*
%TD*%
D18*
%TO.C,R3*%
X150396000Y-82804000D03*
X152221000Y-82804000D03*
%TD*%
D19*
%TO.C,J2*%
X112522000Y-141695000D03*
X109982000Y-141695000D03*
X107442000Y-141695000D03*
X104902000Y-141695000D03*
X102362000Y-141695000D03*
D11*
X99822000Y-141695000D03*
D19*
X112522000Y-144235000D03*
X109982000Y-144235000D03*
X107442000Y-144235000D03*
X104902000Y-144235000D03*
X102362000Y-144235000D03*
X99822000Y-144235000D03*
%TD*%
D20*
%TO.C,R7*%
X147724500Y-110998000D03*
X145899500Y-110998000D03*
%TD*%
D19*
%TO.C,J1*%
X89662000Y-141732000D03*
X87122000Y-141732000D03*
X84582000Y-141732000D03*
X82042000Y-141732000D03*
X79502000Y-141732000D03*
D11*
X76962000Y-141732000D03*
D19*
X89662000Y-144272000D03*
X87122000Y-144272000D03*
X84582000Y-144272000D03*
X82042000Y-144272000D03*
X79502000Y-144272000D03*
X76962000Y-144272000D03*
%TD*%
D18*
%TO.C,R2*%
X150396000Y-88392000D03*
X152221000Y-88392000D03*
%TD*%
D19*
%TO.C,J4*%
X122657000Y-67855000D03*
X125197000Y-67855000D03*
X127737000Y-67855000D03*
X130277000Y-67855000D03*
X132817000Y-67855000D03*
D11*
X135357000Y-67855000D03*
D19*
X122657000Y-65315000D03*
X125197000Y-65315000D03*
X127737000Y-65315000D03*
X130277000Y-65315000D03*
X132817000Y-65315000D03*
X135357000Y-65315000D03*
%TD*%
D21*
%TO.C,D2*%
X145090000Y-88392000D03*
X146840000Y-88392000D03*
%TD*%
D11*
%TO.C,CN2*%
X69342000Y-84582000D03*
D17*
X69342000Y-87122000D03*
X71882000Y-84582000D03*
X71882000Y-87122000D03*
X74422000Y-84582000D03*
X74422000Y-87122000D03*
X76962000Y-84582000D03*
X76962000Y-87122000D03*
X79502000Y-84582000D03*
X79502000Y-87122000D03*
X82042000Y-84582000D03*
X82042000Y-87122000D03*
X84582000Y-84582000D03*
X84582000Y-87122000D03*
X87122000Y-84582000D03*
X87122000Y-87122000D03*
X89662000Y-84582000D03*
X89662000Y-87122000D03*
X92202000Y-84582000D03*
X92202000Y-87122000D03*
X94742000Y-84582000D03*
X94742000Y-87122000D03*
X97282000Y-84582000D03*
X97282000Y-87122000D03*
X99822000Y-84582000D03*
X99822000Y-87122000D03*
X102362000Y-84582000D03*
X102362000Y-87122000D03*
X104902000Y-84582000D03*
X104902000Y-87122000D03*
X107442000Y-84582000D03*
X107442000Y-87122000D03*
X109982000Y-84582000D03*
X109982000Y-87122000D03*
X112522000Y-84582000D03*
X112522000Y-87122000D03*
X115062000Y-84582000D03*
X115062000Y-87122000D03*
X117602000Y-84582000D03*
X117602000Y-87122000D03*
X120142000Y-84582000D03*
X120142000Y-87122000D03*
X122682000Y-84582000D03*
X122682000Y-87122000D03*
X125222000Y-84582000D03*
X125222000Y-87122000D03*
X127762000Y-84582000D03*
X127762000Y-87122000D03*
X130302000Y-84582000D03*
X130302000Y-87122000D03*
%TD*%
D22*
%TO.C,REF\u002A\u002A*%
X155194000Y-59944000D03*
%TD*%
D20*
%TO.C,R8*%
X147724500Y-101600000D03*
X145899500Y-101600000D03*
%TD*%
D21*
%TO.C,D1*%
X145090000Y-94234000D03*
X146840000Y-94234000D03*
%TD*%
D11*
%TO.C,CN1*%
X69342000Y-132080000D03*
D17*
X69342000Y-129540000D03*
X71882000Y-132080000D03*
X71882000Y-129540000D03*
X74422000Y-132080000D03*
X74422000Y-129540000D03*
X76962000Y-132080000D03*
X76962000Y-129540000D03*
X79502000Y-132080000D03*
X79502000Y-129540000D03*
X82042000Y-132080000D03*
X82042000Y-129540000D03*
X84582000Y-132080000D03*
X84582000Y-129540000D03*
X87122000Y-132080000D03*
X87122000Y-129540000D03*
X89662000Y-132080000D03*
X89662000Y-129540000D03*
X92202000Y-132080000D03*
X92202000Y-129540000D03*
X94742000Y-132080000D03*
X94742000Y-129540000D03*
X97282000Y-132080000D03*
X97282000Y-129540000D03*
X99822000Y-132080000D03*
X99822000Y-129540000D03*
X102362000Y-132080000D03*
X102362000Y-129540000D03*
X104902000Y-132080000D03*
X104902000Y-129540000D03*
X107442000Y-132080000D03*
X107442000Y-129540000D03*
X109982000Y-132080000D03*
X109982000Y-129540000D03*
X112522000Y-132080000D03*
X112522000Y-129540000D03*
X115062000Y-132080000D03*
X115062000Y-129540000D03*
X117602000Y-132080000D03*
X117602000Y-129540000D03*
X120142000Y-132080000D03*
X120142000Y-129540000D03*
X122682000Y-132080000D03*
X122682000Y-129540000D03*
X125222000Y-132080000D03*
X125222000Y-129540000D03*
X127762000Y-132080000D03*
X127762000Y-129540000D03*
X130302000Y-132080000D03*
X130302000Y-129540000D03*
%TD*%
D11*
%TO.C,J8*%
X69342000Y-77724000D03*
D17*
X69342000Y-80264000D03*
X71882000Y-77724000D03*
X71882000Y-80264000D03*
X74422000Y-77724000D03*
X74422000Y-80264000D03*
X76962000Y-77724000D03*
X76962000Y-80264000D03*
X79502000Y-77724000D03*
X79502000Y-80264000D03*
X82042000Y-77724000D03*
X82042000Y-80264000D03*
X84582000Y-77724000D03*
X84582000Y-80264000D03*
X87122000Y-77724000D03*
X87122000Y-80264000D03*
X89662000Y-77724000D03*
X89662000Y-80264000D03*
X92202000Y-77724000D03*
X92202000Y-80264000D03*
X94742000Y-77724000D03*
X94742000Y-80264000D03*
X97282000Y-77724000D03*
X97282000Y-80264000D03*
X99822000Y-77724000D03*
X99822000Y-80264000D03*
X102362000Y-77724000D03*
X102362000Y-80264000D03*
X104902000Y-77724000D03*
X104902000Y-80264000D03*
X107442000Y-77724000D03*
X107442000Y-80264000D03*
X109982000Y-77724000D03*
X109982000Y-80264000D03*
X112522000Y-77724000D03*
X112522000Y-80264000D03*
X115062000Y-77724000D03*
X115062000Y-80264000D03*
X117602000Y-77724000D03*
X117602000Y-80264000D03*
X120142000Y-77724000D03*
X120142000Y-80264000D03*
X122682000Y-77724000D03*
X122682000Y-80264000D03*
X125222000Y-77724000D03*
X125222000Y-80264000D03*
X127762000Y-77724000D03*
X127762000Y-80264000D03*
X130302000Y-77724000D03*
X130302000Y-80264000D03*
%TD*%
D21*
%TO.C,D3*%
X145062000Y-82804000D03*
X146812000Y-82804000D03*
%TD*%
%TO.C,D4*%
X145062000Y-77724000D03*
X146812000Y-77724000D03*
%TD*%
D23*
%TO.C,C1*%
X73567237Y-100439922D03*
X73567237Y-98714922D03*
%TD*%
D19*
%TO.C,J3*%
X76937000Y-67855000D03*
X79477000Y-67855000D03*
X82017000Y-67855000D03*
X84557000Y-67855000D03*
X87097000Y-67855000D03*
D11*
X89637000Y-67855000D03*
D19*
X76937000Y-65315000D03*
X79477000Y-65315000D03*
X82017000Y-65315000D03*
X84557000Y-65315000D03*
X87097000Y-65315000D03*
X89637000Y-65315000D03*
%TD*%
%TO.C,J5*%
X135382000Y-141695000D03*
X132842000Y-141695000D03*
X130302000Y-141695000D03*
X127762000Y-141695000D03*
X125222000Y-141695000D03*
D11*
X122682000Y-141695000D03*
D19*
X135382000Y-144235000D03*
X132842000Y-144235000D03*
X130302000Y-144235000D03*
X127762000Y-144235000D03*
X125222000Y-144235000D03*
X122682000Y-144235000D03*
%TD*%
D22*
%TO.C,REF\u002A\u002A*%
X65278000Y-59944000D03*
%TD*%
D20*
%TO.C,R5*%
X147724500Y-129540000D03*
X145899500Y-129540000D03*
%TD*%
D18*
%TO.C,R4*%
X150396000Y-77724000D03*
X152221000Y-77724000D03*
%TD*%
%TO.C,R1*%
X150396000Y-94234000D03*
X152221000Y-94234000D03*
%TD*%
D22*
%TO.C,REF\u002A\u002A*%
X155194000Y-149606000D03*
%TD*%
D19*
%TO.C,J6*%
X99797000Y-67855000D03*
X102337000Y-67855000D03*
X104877000Y-67855000D03*
X107417000Y-67855000D03*
X109957000Y-67855000D03*
D11*
X112497000Y-67855000D03*
D19*
X99797000Y-65315000D03*
X102337000Y-65315000D03*
X104877000Y-65315000D03*
X107417000Y-65315000D03*
X109957000Y-65315000D03*
X112497000Y-65315000D03*
%TD*%
D22*
%TO.C,REF\u002A\u002A*%
X65278000Y-149606000D03*
%TD*%
D24*
%TO.C,C2*%
X73559500Y-110744000D03*
X75284500Y-110744000D03*
%TD*%
D20*
%TO.C,R6*%
X147724500Y-120396000D03*
X145899500Y-120396000D03*
%TD*%
M02*
